# This file uses centimeters as units for non-parametric coordinates.

mtllib mLv1Bridge.mtl
g default
v -19.685539 -0.895398 114.757225
v -19.137424 -0.895398 114.757225
v -19.065481 -0.094683 115.557938
v -19.827467 -0.094683 115.557938
v -19.827464 -0.201958 115.157578
v -19.065475 -0.201958 115.157578
v -19.827464 -0.495040 114.864502
v -19.065475 -0.495040 114.864502
v -19.473817 -1.921339 114.757225
v -19.303748 -1.921339 114.757225
v -19.827464 0.092663 114.000000
v -19.473817 -1.921339 114.000000
v -19.303748 -1.921339 114.000000
v -19.065475 0.092663 114.000000
v -19.827472 0.206786 115.557938
v -19.827470 0.206785 114.445786
v -19.065484 0.206785 114.445786
v -19.065486 0.206786 115.557938
v -20.241519 -0.495040 114.700447
v -20.044772 -0.895398 114.564590
v -20.349742 -0.201958 115.157578
v -20.349742 -0.094683 115.557938
v -20.349742 0.092665 115.557938
v -20.349742 0.092663 114.000000
v -19.719592 -1.654007 114.000000
v -19.719592 -1.654007 114.381638
v -20.349745 0.206786 115.557938
v -20.349748 0.206785 114.445786
v -18.752138 -0.895398 114.564590
v -18.576999 -0.495040 114.700447
v -19.065542 -1.654013 114.381638
v -19.065542 -1.654013 114.000000
v -18.438732 0.092663 114.000000
v -18.438735 0.092665 115.557938
v -18.438735 -0.094683 115.557938
v -18.438732 -0.201958 115.157578
v -18.438740 0.206785 114.445786
v -18.438740 0.206786 115.557938
v -20.349748 -0.094683 122.032608
v -19.863448 -0.094683 122.032608
v -20.349748 0.092665 122.032608
v -20.349742 0.206786 122.032608
v -19.827472 0.206786 122.032608
v -18.994524 -0.094683 122.032608
v -19.065486 0.206786 122.032608
v -18.438740 -0.094683 122.032608
v -18.438740 0.092665 122.032608
v -18.438735 0.206786 122.032608
v -19.031976 -0.895398 122.833321
v -19.791499 -0.895398 122.833321
v -18.890050 -0.201958 122.432968
v -19.863448 -0.201958 122.432968
v -18.890050 -0.495040 122.726044
v -19.863448 -0.495040 122.726044
v -19.314666 -1.921339 122.833321
v -19.484734 -1.921339 122.833321
v -18.961019 0.092663 123.590546
v -19.314666 -1.921339 123.590546
v -19.484734 -1.921339 123.590546
v -19.863448 0.092663 123.590546
v -19.065486 0.206785 123.134438
v -19.827475 0.206785 123.134438
v -18.546964 -0.495040 122.890099
v -18.743711 -0.895398 123.025955
v -18.438740 -0.201958 122.432968
v -18.438740 0.092663 123.590546
v -19.068890 -1.654007 123.590546
v -19.068890 -1.654007 123.208908
v -18.438735 0.206785 123.134438
v -20.036344 -0.895398 123.025955
v -20.211484 -0.495040 122.890099
v -19.722941 -1.654013 123.208908
v -19.722941 -1.654013 123.590546
v -20.349751 0.092663 123.590546
v -20.349751 -0.201958 122.432968
v -20.349742 0.206785 123.134438
vt 0.679471 0.009988
vt 0.654228 0.009988
vt 0.654228 0.007867
vt 0.679471 0.007867
vt 0.755429 0.105932
vt 0.755429 0.095220
vt 0.760979 0.095220
vt 0.760979 0.105932
vt 0.751914 0.039275
vt 0.741203 0.039275
vt 0.741203 0.034696
vt 0.751914 0.034696
vt 0.743198 0.028441
vt 0.750903 0.028441
vt 0.746174 0.012411
vt 0.748565 0.012411
vt 0.735382 0.034696
vt 0.738148 0.028441
vt 0.733861 0.039275
vt 0.755429 0.087878
vt 0.742719 0.016588
vt 0.756319 0.028441
vt 0.758781 0.034696
vt 0.760979 0.087878
vt 0.751913 0.016588
vt 0.760725 0.039275
vt 0.691513 0.040233
vt 0.677830 0.040233
vt 0.677830 0.035654
vt 0.760979 0.114742
vt 0.768365 0.097174
vt 0.691513 0.035654
vt 0.775378 0.080837
vt 0.679825 0.029399
vt 0.690502 0.029399
vt 0.683798 0.013369
vt 0.760884 0.042021
vt 0.755429 0.114742
vt 0.686189 0.013369
vt 0.775297 0.046860
vt 0.698349 0.040233
vt 0.689538 0.017546
vt 0.675934 0.094885
vt 0.675934 0.087796
vt 0.696406 0.035654
vt 0.675934 0.106349
vt 0.755899 0.046860
vt 0.755899 0.043783
vt 0.775378 0.109717
vt 0.770637 0.109717
vt 0.756026 0.080837
vt 0.756026 0.078950
vt 0.769747 0.048734
vt 0.769840 0.078950
vt 0.693944 0.029399
vt 0.675934 0.114660
vt 0.673007 0.035654
vt 0.675773 0.029399
vt 0.752473 0.006126
vt 0.777716 0.006126
vt 0.775378 0.114138
vt 0.777716 0.008247
vt 0.752473 0.008247
vt 0.755899 0.048734
vt 0.765972 0.114138
vt 0.765869 0.013779
vt 0.760998 0.085708
vt 0.756026 0.083935
vt 0.766677 0.090554
vt 0.675602 0.083935
vt 0.675602 0.080837
vt 0.675602 0.078950
vt 0.670629 0.085708
vt 0.656250 0.080837
vt 0.661916 0.078950
vt 0.665656 0.114138
vt 0.656250 0.114138
vt 0.656250 0.109717
vt 0.660990 0.109717
vt 0.664951 0.090554
vt 0.663263 0.097174
vt 0.775297 0.013779
vt 0.775297 0.018170
vt 0.770546 0.018170
vt 0.766576 0.037206
vt 0.768268 0.030630
vt 0.675281 0.043783
vt 0.675281 0.046860
vt 0.675281 0.048734
vt 0.662912 0.030630
vt 0.655882 0.046860
vt 0.655882 0.018170
vt 0.660634 0.018170
vt 0.661561 0.048734
vt 0.655882 0.013779
vt 0.665311 0.013779
vt 0.670296 0.042021
vt 0.664604 0.037206
vt 0.698865 0.005772
vt 0.707906 0.005772
vt 0.705079 0.040471
vt 0.703061 0.040471
vt 0.715343 0.005772
vt 0.707905 0.035865
vt 0.700145 0.035865
vt 0.692668 0.005772
vt 0.662771 0.057487
vt 0.662771 0.068198
vt 0.657343 0.068198
vt 0.657343 0.057487
vt 0.676311 0.057487
vt 0.676311 0.068198
vt 0.662771 0.050145
vt 0.676311 0.050145
vt 0.657343 0.050145
vt 0.662771 0.077009
vt 0.657343 0.077009
vt 0.676311 0.077009
vt 0.755141 0.050145
vt 0.755141 0.057487
vt 0.755141 0.068198
vt 0.755141 0.077009
vt 0.768556 0.068198
vt 0.768556 0.057487
vt 0.774109 0.056981
vt 0.774109 0.069667
vt 0.768556 0.077009
vt 0.774109 0.077009
vt 0.768556 0.050145
vt 0.774109 0.050145
vt 0.726023 0.039817
vt 0.715251 0.039817
vt 0.719771 0.004911
vt 0.721801 0.004911
vt 0.709446 0.039817
vt 0.716928 0.009544
vt 0.724735 0.009544
vt 0.732257 0.039817
vt 0.670843 0.087714
vt 0.680344 0.017546
vt 0.670843 0.108234
vt 0.670843 0.094550
vt 0.671485 0.040233
vt 0.670843 0.114578
vn 0.000000 -0.965926 0.258817
vn 0.000000 -0.965926 0.258817
vn 0.000000 -0.866023 0.500004
vn 0.000000 -0.866023 0.500004
vn 0.000000 -0.499997 0.866027
vn 0.000000 -0.499997 0.866027
vn 0.000000 -0.130528 0.991445
vn 0.000000 -0.130528 0.991445
vn 0.000000 0.000000 1.000000
vn 0.000000 0.000000 1.000000
vn -0.921394 -0.368162 -0.124462
vn -0.976710 -0.204540 -0.064820
vn -0.933938 -0.351319 -0.065848
vn -0.933938 -0.351319 -0.065848
vn 0.985562 -0.164082 -0.041760
vn 0.975831 -0.212056 -0.052778
vn 1.000000 0.000025 0.000002
vn 1.000000 0.000013 0.000002
vn 0.000000 0.000000 -1.000000
vn 0.000000 0.000000 -1.000000
vn 0.000000 0.000000 -1.000000
vn 0.000000 0.000000 -1.000000
vn -1.000000 -0.000023 0.000001
vn -1.000000 -0.000036 0.000001
vn -1.000000 -0.000036 0.000001
vn 1.000000 0.000036 0.000001
vn 1.000000 0.000036 0.000001
vn 0.000000 -1.000000 0.000000
vn 0.000000 -1.000000 0.000000
vn 0.000000 -1.000000 0.000000
vn 0.000000 -1.000000 0.000000
vn 0.000000 0.968759 -0.248004
vn 0.000000 0.968759 -0.248004
vn 0.000000 0.968759 -0.248004
vn 0.000000 0.968759 -0.248004
vn 0.000000 1.000000 -0.000001
vn 0.000000 1.000000 -0.000001
vn 0.000000 1.000000 -0.000001
vn 0.000000 1.000000 -0.000001
vn -0.549614 -0.359708 0.754012
vn -0.247318 -0.629800 0.736332
vn -0.247318 -0.629800 0.736332
vn -0.549614 -0.359708 0.754012
vn -0.053726 -0.896818 0.439126
vn -0.053726 -0.896818 0.439126
vn 0.000000 -0.965926 0.258818
vn 0.000000 -0.965926 0.258818
vn 0.000023 0.000000 -1.000000
vn 0.000023 0.000000 -1.000000
vn 0.000023 0.000000 -1.000000
vn 0.000023 0.000000 -1.000000
vn -0.736160 -0.676808 0.000000
vn -0.736160 -0.676808 0.000000
vn -0.736160 -0.676808 0.000000
vn -0.736160 -0.676808 0.000000
vn -0.720056 -0.281658 0.634183
vn -0.720056 -0.281658 0.634183
vn -0.000000 1.000000 -0.000001
vn -0.000000 1.000000 -0.000001
vn -0.000000 1.000000 -0.000001
vn -0.000000 1.000000 -0.000001
vn 0.000000 0.968759 -0.248004
vn 0.000000 0.968759 -0.248004
vn 0.000000 0.968759 -0.248004
vn 0.000000 0.968759 -0.248004
vn -0.990985 -0.129832 -0.033045
vn -1.000000 -0.000010 0.000000
vn -0.938645 -0.321532 -0.124755
vn 0.225043 -0.611983 0.758178
vn 0.528063 -0.325556 0.784323
vn 0.528063 -0.325556 0.784323
vn 0.225043 -0.611983 0.758178
vn 0.708861 -0.257872 0.656519
vn 0.708861 -0.257872 0.656519
vn 0.746602 -0.665271 0.000000
vn 0.746602 -0.665271 0.000000
vn 0.746602 -0.665271 0.000000
vn 0.746602 -0.665271 0.000000
vn 0.000000 0.000000 -1.000000
vn 0.000000 0.000000 -1.000000
vn 0.000000 0.000000 -1.000000
vn 0.000000 0.000000 -1.000000
vn 0.000000 -0.965926 0.258818
vn 0.045151 -0.897237 0.439235
vn 0.045151 -0.897237 0.439235
vn 0.000000 -0.965926 0.258818
vn 0.000000 0.968760 -0.248001
vn 0.000000 0.968760 -0.248001
vn 0.000000 0.968760 -0.248001
vn 0.000000 0.968760 -0.248001
vn 0.000000 1.000000 -0.000001
vn 0.000000 1.000000 -0.000001
vn 0.000000 1.000000 -0.000001
vn 0.000000 1.000000 -0.000001
vn 0.934498 -0.341119 -0.101743
vn 0.930612 -0.355381 -0.087555
vn 0.936195 -0.347495 -0.052772
vn 0.936195 -0.347495 -0.052772
vn -0.000000 1.000000 0.000000
vn -0.000000 1.000000 0.000000
vn -0.000000 1.000000 0.000000
vn -0.000000 1.000000 0.000000
vn 0.000000 -1.000000 -0.000000
vn 0.000000 -1.000000 -0.000000
vn 0.000000 -1.000000 -0.000000
vn 0.000000 -1.000000 -0.000000
vn 1.000000 0.000000 0.000001
vn 1.000000 0.000000 0.000001
vn 1.000000 0.000000 0.000001
vn 1.000000 0.000000 0.000001
vn -1.000000 0.000000 -0.000001
vn -1.000000 0.000000 -0.000001
vn -1.000000 0.000000 -0.000001
vn -1.000000 0.000000 -0.000001
vn 1.000000 0.000000 0.000000
vn 1.000000 0.000000 0.000000
vn 1.000000 0.000000 0.000000
vn 1.000000 0.000000 0.000000
vn -1.000000 0.000030 -0.000000
vn -1.000000 0.000030 -0.000000
vn -1.000000 0.000030 -0.000000
vn -1.000000 0.000030 -0.000000
vn 0.000000 -1.000000 0.000000
vn 0.000000 -1.000000 0.000000
vn 0.000000 -1.000000 0.000000
vn 0.000000 -1.000000 0.000000
vn 0.000000 1.000000 0.000000
vn 0.000000 1.000000 0.000000
vn 0.000000 1.000000 0.000000
vn 0.000000 1.000000 0.000000
vn 0.000000 -1.000000 -0.000000
vn 0.000000 -1.000000 -0.000000
vn 0.000000 -1.000000 -0.000000
vn 0.000000 -1.000000 -0.000000
vn 0.000000 1.000000 0.000000
vn 0.000000 1.000000 0.000000
vn 0.000000 1.000000 0.000000
vn 0.000000 1.000000 0.000000
vn 0.000000 -0.965926 -0.258818
vn 0.000000 -0.965926 -0.258818
vn 0.000000 -0.866023 -0.500004
vn 0.000000 -0.866023 -0.500004
vn 0.000000 -0.499997 -0.866027
vn 0.000000 -0.499997 -0.866027
vn 0.000000 -0.130527 -0.991445
vn 0.000000 -0.130527 -0.991445
vn 0.000000 0.000000 -1.000000
vn 0.000000 0.000000 -1.000000
vn 0.921394 -0.368161 0.124459
vn 0.976709 -0.204543 0.064819
vn 0.933933 -0.351330 0.065850
vn 0.933933 -0.351330 0.065850
vn -0.985562 -0.164083 0.041760
vn -0.975832 -0.212054 0.052777
vn -1.000000 0.000023 -0.000002
vn -1.000000 0.000010 -0.000002
vn 0.000000 0.000000 1.000000
vn 0.000000 0.000000 1.000000
vn 0.000000 0.000000 1.000000
vn 0.000000 0.000000 1.000000
vn 1.000000 -0.000028 -0.000000
vn 1.000000 -0.000046 -0.000000
vn 1.000000 -0.000046 -0.000000
vn -1.000000 0.000036 -0.000001
vn -1.000000 0.000036 -0.000001
vn 0.000000 -1.000000 0.000000
vn 0.000000 -1.000000 0.000000
vn 0.000000 -1.000000 0.000000
vn 0.000000 -1.000000 0.000000
vn 0.000000 0.970095 0.242726
vn 0.000000 0.970095 0.242726
vn 0.000000 0.970095 0.242726
vn 0.000000 0.970095 0.242726
vn 0.000000 1.000000 0.000001
vn 0.000000 1.000000 0.000001
vn 0.000000 1.000000 0.000001
vn 0.000000 1.000000 0.000001
vn 0.603327 -0.384036 -0.698937
vn 0.286860 -0.638975 -0.713738
vn 0.286860 -0.638975 -0.713738
vn 0.603327 -0.384036 -0.698937
vn 0.062952 -0.896984 -0.437557
vn 0.062952 -0.896984 -0.437557
vn 0.000000 -0.965927 -0.258816
vn 0.000000 -0.965927 -0.258816
vn 0.000000 0.000000 1.000000
vn 0.000000 0.000000 1.000000
vn 0.000000 0.000000 1.000000
vn 0.000000 0.000000 1.000000
vn 0.736160 -0.676808 0.000000
vn 0.736160 -0.676808 0.000000
vn 0.736160 -0.676808 0.000000
vn 0.736160 -0.676808 0.000000
vn 0.760986 -0.317217 -0.565927
vn 0.760986 -0.317217 -0.565927
vn 0.000000 1.000000 0.000001
vn 0.000000 1.000000 0.000001
vn 0.000000 1.000000 0.000001
vn 0.000000 1.000000 0.000001
vn 0.000000 0.970095 0.242724
vn 0.000000 0.970095 0.242724
vn 0.000000 0.970095 0.242724
vn 0.000000 0.970095 0.242724
vn 0.990984 -0.129838 0.033045
vn 1.000000 -0.000010 0.000000
vn 0.938646 -0.321530 0.124751
vn -0.299764 -0.626707 -0.719291
vn -0.635111 -0.367588 -0.679348
vn -0.635111 -0.367588 -0.679348
vn -0.299764 -0.626707 -0.719291
vn -0.790336 -0.327715 -0.517661
vn -0.790336 -0.327715 -0.517661
vn -0.746594 -0.665280 0.000000
vn -0.746594 -0.665280 0.000000
vn -0.746594 -0.665280 0.000000
vn -0.746594 -0.665280 0.000000
vn 0.000012 0.000000 1.000000
vn 0.000012 0.000000 1.000000
vn 0.000012 0.000000 1.000000
vn 0.000012 0.000000 1.000000
vn 0.000000 -0.965926 -0.258817
vn -0.059743 -0.897743 -0.436450
vn -0.059743 -0.897743 -0.436450
vn 0.000000 -0.965926 -0.258817
vn 0.000000 0.970095 0.242725
vn 0.000000 0.970095 0.242725
vn 0.000000 0.970095 0.242725
vn 0.000000 0.970095 0.242725
vn -0.000000 1.000000 0.000001
vn -0.000000 1.000000 0.000001
vn -0.000000 1.000000 0.000001
vn -0.000000 1.000000 0.000001
vn -0.934500 -0.341113 0.101740
vn -0.930615 -0.355374 0.087553
vn -0.936196 -0.347494 0.052772
vn -0.936196 -0.347494 0.052772
s 1
g mBridge
usemtl blinn1SG
f 3/5/1 4/6/2 5/7/3 6/8/4
f 6/9/4 5/10/3 7/11/5 8/12/6
f 8/12/6 7/11/5 1/13/7 2/14/8
f 2/14/8 1/13/7 9/15/9 10/16/10
s 2
f 20/31/11 24/33/12 25/49/13 26/50/14
s 3
f 36/37/15 33/40/16 34/47/17 35/48/18
s off
f 11/99/19 14/100/20 13/101/21 12/102/22
s 2
f 24/33/12 23/51/23 27/52/24 28/54/25
s 3
f 34/47/17 33/40/16 37/53/26 38/64/27
s off
f 12/1/28 13/2/29 10/3/30 9/4/31
f 16/107/32 17/108/33 14/109/34 11/110/35
f 15/111/36 18/112/37 17/108/38 16/107/39
s 5
f 1/13/40 7/11/41 19/17/42 20/18/43
f 7/11/41 5/10/44 21/19/45 19/17/42
f 5/7/44 4/6/46 22/20/47 21/24/45
s off
f 11/99/48 12/102/49 25/105/50 24/106/51
f 12/61/52 9/65/53 26/50/54 25/49/55
s 5
f 9/15/56 1/13/40 20/18/43 26/21/57
s off
f 15/111/58 16/107/59 28/113/60 27/114/61
f 16/107/62 11/110/63 24/115/64 28/113/65
s 2
f 24/33/12 21/67/66 22/68/67 23/51/23
f 24/33/12 19/69/68 21/67/66
f 20/31/11 19/69/68 24/33/12
s 6
f 8/12/69 2/14/70 29/22/71 30/23/72
f 2/14/70 10/16/73 31/25/74 29/22/71
s off
f 10/66/75 13/82/76 32/83/77 31/84/78
f 13/101/79 14/100/80 33/103/81 32/104/82
s 6
f 3/5/83 6/8/84 36/30/85 35/38/86
f 6/9/84 8/12/69 30/23/72 36/26/85
s off
f 14/109/87 17/108/88 37/116/89 33/117/90
f 17/108/91 18/112/92 38/118/93 37/116/94
s 3
f 30/85/95 29/86/96 33/40/16
f 30/85/95 33/40/16 36/37/15
f 33/40/16 29/86/96 31/84/97 32/83/98
s off
f 42/119/99 43/120/100 15/111/101 27/114/102
f 22/20/103 4/6/104 40/43/105 39/44/106
f 46/87/107 35/48/108 34/47/109 47/88/110
f 22/68/111 39/70/112 41/71/113 23/51/114
f 47/88/115 34/47/116 38/64/117 48/89/118
f 23/51/119 41/71/120 42/72/121 27/52/122
f 40/43/123 4/6/124 3/5/125 44/46/126
f 15/111/127 43/120/128 45/121/129 18/112/130
f 44/46/131 3/5/132 35/38/133 46/56/134
f 18/112/135 45/121/136 48/122/137 38/118/138
s 8
f 40/43/139 44/46/140 51/141/141 52/142/142
f 52/27/142 51/28/141 53/29/143 54/32/144
f 54/32/144 53/29/143 49/34/145 50/35/146
f 50/35/146 49/34/145 55/36/147 56/39/148
s 9
f 64/90/149 66/91/150 67/92/151 68/93/152
s 10
f 75/73/153 74/74/154 41/71/155 39/70/156
s off
f 57/131/157 60/132/158 59/133/159 58/134/160
s 9
f 66/91/150 47/88/161 48/89/162 69/94/163
s 10
f 41/71/155 74/74/154 76/75/164 42/72/165
s off
f 58/59/166 59/60/167 56/62/168 55/63/169
f 61/123/170 62/124/171 60/125/172 57/126/173
f 45/121/174 43/120/175 62/124/176 61/123/177
s 12
f 49/34/178 53/29/179 63/57/180 64/58/181
f 53/29/179 51/28/182 65/143/183 63/57/180
f 51/141/182 44/46/184 46/56/185 65/144/183
s off
f 57/131/186 58/134/187 67/137/188 66/138/189
f 58/95/190 55/96/191 68/93/192 67/92/193
s 12
f 55/36/194 49/34/178 64/58/181 68/140/195
s off
f 45/121/196 61/123/197 69/127/198 48/122/199
f 61/123/200 57/126/201 66/128/202 69/127/203
s 9
f 66/91/150 65/97/204 46/87/205 47/88/161
f 66/91/150 63/98/206 65/97/204
f 64/90/149 63/98/206 66/91/150
s 13
f 54/32/207 50/35/208 70/55/209 71/45/210
f 50/35/208 56/39/211 72/42/212 70/55/209
s off
f 56/76/213 59/77/214 73/78/215 72/79/216
f 59/133/217 60/132/218 74/135/219 73/136/220
s 13
f 40/43/221 52/142/222 75/139/223 39/44/224
f 52/27/222 54/32/207 71/45/210 75/41/223
s off
f 60/125/225 62/124/226 76/129/227 74/130/228
f 62/124/229 43/120/230 42/119/231 76/129/232
s 10
f 71/80/233 70/81/234 74/74/154
f 71/80/233 74/74/154 75/73/153
f 74/74/154 70/81/234 72/79/235 73/78/236
