# This file uses centimeters as units for non-parametric coordinates.

mtllib mLv1Mountain12.mtl
g default
v -33.494830 -13.206805 109.421821
v -84.954400 -13.907666 101.012183
v -58.120861 -13.637533 110.361664
v -73.764288 -13.850222 107.785989
v -46.359723 -13.382020 107.319411
v -31.065146 -12.880062 94.527067
v -53.353999 -13.545183 109.712408
v -79.083784 -13.895614 105.507589
v -40.282669 -13.342207 110.549291
v -32.279988 -13.043434 101.974444
v -72.810839 -4.289992 106.741570
v -66.533339 -4.223221 108.742643
v -45.912646 -3.855745 107.601316
v -40.086778 -3.776399 108.553392
v -33.340846 -4.579574 94.337933
v -59.945947 -4.114776 108.843979
v -53.513500 -4.027169 109.895184
v -85.113902 -4.389652 101.194959
v -79.243285 -4.377599 105.690365
v -37.262089 -3.677497 105.868084
v -34.555688 -4.742946 101.785310
v -68.975078 3.407473 101.056382
v -64.090587 1.032568 101.801060
v -50.018250 2.455688 102.471154
v -47.759987 2.550215 101.060958
v -46.242396 2.659199 100.485157
v -36.089331 0.791517 94.007415
v -45.027554 2.822571 93.037780
v -59.246999 1.098536 102.592610
v -54.423508 2.363891 103.407192
v -78.641449 2.034051 99.449442
v -73.818666 3.341505 100.264833
v -42.211524 0.908172 102.424872
v -37.304173 0.628145 101.454792
v -66.992421 -13.824423 112.351986
v -71.422017 -13.884751 111.628092
v -66.901821 -7.855399 111.300137
v -70.548399 -7.543873 110.712129
v -62.289923 -13.760376 113.120479
v -63.284366 -7.889674 111.889477
vt 0.666888 0.400517
vt 0.666888 0.380339
vt 0.642577 0.380339
vt 0.642577 0.400517
vt 0.634347 0.413381
vt 0.633188 0.394803
vt 0.618267 0.385687
vt 0.628272 0.378099
vt 0.663765 0.239408
vt 0.663765 0.281492
vt 0.663765 0.308812
vt 0.639455 0.239408
vt 0.639455 0.281492
vt 0.639455 0.308812
vt 0.615144 0.239408
vt 0.625150 0.287497
vt 0.630066 0.310850
vt 0.608032 0.239408
vt 0.615144 0.287497
vt 0.490546 0.245431
vt 0.505004 0.245431
vt 0.505005 0.275460
vt 0.493122 0.277284
vt 0.520353 0.245431
vt 0.516807 0.275038
vt 0.505004 0.293520
vt 0.484009 0.293520
vt 0.481107 0.245431
vt 0.532177 0.245431
vt 0.526000 0.293520
vt 0.510919 0.319462
vt 0.495109 0.331795
vt 0.463013 0.245431
vt 0.463013 0.293520
vt 0.546995 0.245431
vt 0.546995 0.293520
vt 0.526728 0.319463
vt 0.479300 0.331795
vt 0.442018 0.245431
vt 0.442018 0.293520
vt 0.567991 0.245431
vt 0.569971 0.293520
vt 0.542538 0.325522
vt 0.463491 0.325522
vt 0.588987 0.245431
vt 0.588986 0.293520
vt 0.556058 0.325522
vt 0.561292 0.325522
vn 0.140130 0.862077 0.487018
vn 0.140130 0.862077 0.487018
vn 0.213457 0.974285 0.072153
vn 0.203431 0.968020 0.146812
vn 0.215395 0.974890 0.056522
vn 0.215395 0.974890 0.056522
vn -0.152987 0.167667 0.973901
vn -0.152987 0.167667 0.973901
vn -0.152987 0.167667 0.973901
vn -0.152987 0.167667 0.973901
vn -0.330813 0.095427 0.938859
vn -0.330813 0.095427 0.938859
vn -0.330813 0.095427 0.938859
vn -0.330813 0.095427 0.938859
vn -0.036849 0.066066 0.997135
vn 0.163626 0.012088 0.986448
vn 0.163626 0.012088 0.986448
vn -0.036849 0.066066 0.997135
vn 0.306207 -0.027842 0.951558
vn 0.306207 -0.027842 0.951558
vn -0.607742 -0.025427 0.793727
vn -0.464464 0.011097 0.885522
vn -0.464464 0.011097 0.885522
vn -0.607742 -0.025427 0.793727
vn -0.272759 0.054732 0.960524
vn -0.272759 0.054732 0.960524
vn -0.159191 0.175181 0.971581
vn -0.159191 0.175181 0.971581
vn -0.159191 0.175181 0.971581
vn -0.159191 0.175181 0.971581
vn 0.342462 0.320707 0.883101
vn 0.342462 0.320707 0.883101
vn 0.316179 0.525734 0.789705
vn 0.315777 0.527967 0.788375
vn 0.891530 0.359899 0.275040
vn 0.925717 0.310664 0.215722
vn 0.889857 0.383638 0.246935
vn 0.769450 0.481367 0.419799
vn 0.950902 0.264370 0.160914
vn 0.924804 0.345880 0.158445
vn -0.098010 0.663826 0.741438
vn -0.066590 0.709069 0.701988
vn -0.042210 0.742764 0.668221
vn -0.084417 0.667292 0.739996
vn 0.098694 0.711069 0.696161
vn 0.024011 0.717585 0.696057
vn 0.024011 0.717585 0.696057
vn 0.117840 0.708744 0.695554
vn -0.118444 0.740866 0.661127
vn 0.001698 0.723539 0.690282
vn 0.010026 0.722917 0.690862
vn -0.133881 0.755920 0.640828
vn -0.398300 0.658712 0.638323
vn -0.283409 0.653394 0.701965
vn -0.218326 0.645690 0.731723
vn -0.398300 0.658712 0.638323
vn 0.234138 0.809860 0.537873
vn 0.234138 0.809860 0.537872
vn 0.751538 0.552096 0.361082
vn 0.507199 0.619295 0.599352
vn 0.875898 0.457623 0.152918
vn -0.176504 0.651187 0.738107
vn -0.112522 0.635936 0.763495
vn -0.818790 0.161982 0.550767
vn -0.818790 0.161982 0.550767
vn -0.818790 0.161982 0.550767
vn -0.818790 0.161982 0.550767
vn 0.512206 0.241016 0.824352
vn 0.512206 0.241016 0.824352
vn 0.512206 0.241016 0.824352
vn 0.512206 0.241016 0.824352
vn -0.057447 0.620412 0.782169
s 1
g mMountain010
usemtl initialShadingGroup
f 25/5/1 33/6/2 34/3/3 26/4/4
f 34/3/3 27/2/5 28/1/6 26/4/4
s off
f 36/20/7 35/21/8 37/22/9 38/23/10
f 5/41/11 9/45/12 14/46/13 13/42/14
s 2
f 3/29/15 7/35/16 17/36/17 16/30/18
f 7/35/16 5/41/19 13/42/20 17/36/17
s 3
f 2/39/21 8/33/22 19/34/23 18/40/24
f 8/33/22 4/28/25 11/27/26 19/34/23
s off
f 35/21/27 39/24/28 40/25/29 37/22/30
s 4
f 9/18/31 1/15/32 20/16/33 14/19/34
s 5
f 1/15/35 10/12/36 21/13/37 20/16/38
f 10/12/36 6/9/39 15/10/40 21/13/37
s 6
f 11/27/41 12/26/42 23/31/43 22/32/44
f 13/42/45 14/46/46 25/48/47 24/47/48
f 16/30/49 17/36/50 30/43/51 29/37/52
f 17/36/50 13/42/45 24/47/48 30/43/51
f 18/40/53 19/34/54 32/38/55 31/44/56
f 19/34/54 11/27/41 22/32/44 32/38/55
f 12/26/42 16/30/49 29/37/52 23/31/43
s 4
f 14/7/34 20/8/33 33/6/57 25/5/58
s 5
f 20/16/38 21/13/37 34/14/59 33/17/60
f 21/13/37 15/10/40 27/11/61 34/14/59
s 6
f 12/26/42 11/27/41 38/23/62 37/22/63
s off
f 11/27/64 4/28/65 36/20/66 38/23/67
f 3/29/68 16/30/69 40/25/70 39/24/71
s 6
f 16/30/49 12/26/42 37/22/63 40/25/72
