# This file uses centimeters as units for non-parametric coordinates.

mtllib mLv1Rock05.mtl
g default
v -13.166644 0.066049 28.753543
v -8.313286 0.066049 33.606901
v -11.611222 0.066049 27.198120
v -6.757864 0.066049 32.051478
v -13.281602 0.066049 30.121732
v -9.644065 0.066049 33.759269
v -7.346966 1.121050 31.462376
v -10.984709 1.121050 27.824634
v -12.990637 2.916478 31.144710
v -10.667043 2.916478 33.468304
v -7.986801 2.916478 30.822541
v -10.344874 2.916478 28.464469
v -10.354851 4.884713 30.832518
v -9.252014 4.428335 30.589496
v -10.111829 4.428335 29.729681
v -9.353824 0.066049 27.993018
v -7.515351 0.066049 29.831491
v -8.419843 0.066049 28.284029
v -7.806362 0.066049 28.897511
v -8.861684 1.695381 28.191288
v -7.713621 1.695381 29.339351
v -13.381578 0.066049 31.408468
v -10.903199 0.066049 33.886847
v -11.090487 2.089259 33.531117
v -13.143887 2.089258 31.477717
vt 0.726447 0.205938
vt 0.722337 0.194195
vt 0.730557 0.194195
vt 0.673477 0.129308
vt 0.700582 0.129308
vt 0.700582 0.144922
vt 0.663195 0.144922
vt 0.715885 0.129308
vt 0.718927 0.134751
vt 0.700582 0.171495
vt 0.654176 0.171495
vt 0.715885 0.153423
vt 0.691588 0.193871
vt 0.679862 0.200625
vt 0.649939 0.159252
vt 0.652484 0.152982
vt 0.723085 0.129633
vt 0.729809 0.129633
vt 0.730890 0.135075
vt 0.722004 0.135075
vt 0.753500 0.129753
vt 0.781776 0.129753
vt 0.729327 0.153747
vt 0.723567 0.153747
vt 0.737712 0.171820
vt 0.715182 0.171820
vt 0.806331 0.159971
vt 0.677404 0.234038
vt 0.792503 0.145510
vt 0.753500 0.145510
vt 0.801912 0.172326
vt 0.753500 0.172326
vt 0.775115 0.201723
vt 0.762882 0.194907
vt 0.734362 0.135246
vt 0.737535 0.129753
vt 0.737535 0.154088
vt 0.803676 0.153643
vt 0.808770 0.153356
vt 0.832449 0.153356
vt 0.829855 0.159627
vt 0.810236 0.159627
vt 0.803100 0.145297
vt 0.837854 0.145297
vt 0.831577 0.171870
vt 0.809377 0.171870
vt 0.797113 0.129683
vt 0.843484 0.129683
vt 0.820477 0.201000
vt 0.723774 0.206933
vt 0.677404 0.206933
vt 0.697406 0.191630
vt 0.704130 0.191630
vt 0.723774 0.234038
vn 0.305757 0.901679 -0.305757
vn 0.305757 0.901679 -0.305757
vn 0.305757 0.901679 -0.305757
vn -0.000000 -1.000000 0.000000
vn -0.000000 -1.000000 0.000000
vn 0.000000 -1.000000 0.000000
vn 0.000000 -1.000000 0.000000
vn 0.313058 0.788718 0.529074
vn 0.313058 0.788718 0.529074
vn 0.578344 0.443215 0.684893
vn 0.504265 0.377955 0.776445
vn -0.000000 -1.000000 0.000000
vn -0.000000 -1.000000 0.000000
vn -0.000000 -1.000000 0.000000
vn -0.000000 -1.000000 0.000000
vn -0.514613 0.805435 -0.294020
vn -0.514613 0.805435 -0.294020
vn -0.769281 0.381105 -0.512802
vn -0.683308 0.450262 -0.574764
vn -0.705885 0.058768 0.705885
vn -0.705885 0.058768 0.705885
vn -0.705885 0.058768 0.705885
vn -0.705885 0.058768 0.705885
vn 0.592450 0.449383 0.668624
vn 0.566855 0.423655 0.706535
vn 0.699129 0.149795 -0.699129
vn 0.699129 0.149795 -0.699129
vn 0.699129 0.149795 -0.699129
vn 0.699129 0.149795 -0.699129
vn -0.702644 0.423438 -0.571831
vn -0.668624 0.449383 -0.592450
vn -0.565555 0.600246 0.565555
vn -0.563601 0.603910 0.563601
vn -0.485452 0.727099 0.485452
vn 0.520637 0.623438 0.583320
vn 0.520637 0.623438 0.583320
vn 0.568981 0.593734 -0.568981
vn 0.568981 0.593734 -0.568981
vn 0.636788 0.434745 -0.636788
vn 0.636788 0.434745 -0.636788
vn -0.583320 0.623438 -0.520637
vn -0.583320 0.623438 -0.520637
vn 0.000000 -1.000000 -0.000000
vn 0.000000 -1.000000 -0.000000
vn 0.000000 -1.000000 -0.000000
vn 0.000000 -1.000000 -0.000000
vn 0.304338 0.327709 -0.894419
vn 0.172089 0.193178 -0.965954
vn 0.178558 0.199775 -0.963435
vn 0.304338 0.327709 -0.894419
vn 0.966995 0.189978 -0.169794
vn 0.899464 0.318676 -0.299016
vn 0.899464 0.318676 -0.299016
vn 0.964500 0.196550 -0.176374
vn 0.128963 0.149155 -0.980368
vn 0.128963 0.149155 -0.980368
vn 0.495751 0.713066 -0.495751
vn 0.495751 0.713066 -0.495751
vn 0.980368 0.149155 -0.128963
vn 0.980368 0.149155 -0.128963
vn 0.000000 -1.000000 0.000000
vn 0.000000 -1.000000 0.000000
vn 0.000000 -1.000000 -0.000000
vn 0.000000 -1.000000 -0.000000
vn 0.042234 0.141722 0.989005
vn 0.042234 0.141722 0.989005
vn -0.652949 0.383817 0.652949
vn -0.652949 0.383817 0.652949
vn -0.987833 0.127204 -0.089470
vn -0.987833 0.127204 -0.089470
s off
g mStoneBolder3
usemtl initialShadingGroup
f 13/1/1 14/2/2 15/3/3
s 1
f 1/47/4 2/48/5 6/44/6 5/43/7
s 2
f 2/4/8 4/5/9 7/6/10 6/7/11
s off
f 17/17/12 16/18/13 18/19/14 19/20/15
s 3
f 3/21/16 1/22/17 5/29/18 8/30/19
s off
f 22/39/20 23/40/21 24/41/22 25/42/23
s 2
f 6/7/11 7/6/10 11/10/24 10/11/25
s off
f 19/20/26 18/19/27 20/23/28 21/24/29
s 3
f 8/30/19 5/29/18 9/31/30 12/32/31
s 4
f 9/46/32 10/45/33 13/49/34
s 2
f 10/11/25 11/10/24 14/13/35 13/14/36
s 5
f 11/26/37 12/25/38 15/3/39 14/2/40
s 3
f 12/32/31 9/31/30 13/33/41 15/34/42
s 6
f 4/50/43 3/51/44 16/52/45 17/53/46
s 7
f 3/21/47 8/30/48 18/35/49 16/36/50
s 8
f 7/6/51 4/5/52 17/8/53 19/9/54
s 7
f 8/30/48 12/32/55 20/37/56 18/35/49
s 5
f 12/25/38 11/26/37 21/24/57 20/23/58
s 8
f 11/10/59 7/6/51 19/9/54 21/12/60
s 6
f 3/51/44 4/50/43 2/54/61 1/28/62
s 1
f 5/43/7 6/44/6 23/40/63 22/39/64
s 2
f 6/7/11 10/11/25 24/15/65 23/16/66
s 4
f 10/45/33 9/46/32 25/42/67 24/41/68
s 3
f 9/31/30 5/29/18 22/38/69 25/27/70
