# This file uses centimeters as units for non-parametric coordinates.

mtllib mLv1Mountain04.mtl
g default
v -25.055218 0.066049 -46.139026
v -36.568650 0.066049 -34.625594
v -18.325225 0.066049 -39.409033
v -29.838656 0.066049 -27.895601
v -29.094622 5.548844 -47.205438
v -37.723810 5.548844 -38.576250
v -28.441152 5.548844 -29.293105
v -19.811477 5.548844 -37.922780
v -32.892495 14.879600 -47.886295
v -38.404667 14.879600 -42.374123
v -26.923296 14.879600 -30.810961
v -21.329333 14.879600 -36.404924
v -29.270933 25.108433 -38.752561
v -27.379156 22.736658 -34.821080
v -25.339452 22.736658 -36.860784
v -19.491840 0.066049 -30.642965
v -21.161337 0.066049 -28.973467
v -18.468258 1.977195 -30.156062
v -20.674434 1.977195 -27.949886
v -19.611541 8.533616 -30.523263
v -21.041636 8.533616 -29.093169
v -33.161715 8.378712 -48.457225
v -39.041078 8.378714 -42.577863
v -39.028877 10.580580 -43.853845
v -34.157677 10.580578 -48.725045
vt 0.726447 0.205938
vt 0.722337 0.194195
vt 0.730557 0.194195
vt 0.673477 0.129308
vt 0.700582 0.129308
vt 0.700582 0.144922
vt 0.663195 0.144922
vt 0.715885 0.129308
vt 0.718927 0.134751
vt 0.700582 0.171495
vt 0.654176 0.171495
vt 0.715885 0.153423
vt 0.691588 0.193871
vt 0.679862 0.200625
vt 0.649939 0.159252
vt 0.652484 0.152982
vt 0.723085 0.129633
vt 0.729809 0.129633
vt 0.730890 0.135075
vt 0.722004 0.135075
vt 0.753500 0.129753
vt 0.781776 0.129753
vt 0.729327 0.153747
vt 0.723567 0.153747
vt 0.737712 0.171820
vt 0.715182 0.171820
vt 0.806331 0.159971
vt 0.677404 0.234038
vt 0.792503 0.145510
vt 0.753500 0.145510
vt 0.801912 0.172326
vt 0.753500 0.172326
vt 0.775115 0.201723
vt 0.762882 0.194907
vt 0.734362 0.135246
vt 0.737535 0.129753
vt 0.737535 0.154088
vt 0.803676 0.153643
vt 0.808770 0.153356
vt 0.832449 0.153356
vt 0.829855 0.159627
vt 0.810236 0.159627
vt 0.803100 0.145297
vt 0.837854 0.145297
vt 0.831577 0.171870
vt 0.809377 0.171870
vt 0.797113 0.129683
vt 0.843484 0.129683
vt 0.820477 0.201000
vt 0.723774 0.206933
vt 0.677404 0.206933
vt 0.697406 0.191630
vt 0.704130 0.191630
vt 0.723774 0.234038
vn 0.352933 0.866531 0.352933
vn 0.352933 0.866531 0.352933
vn 0.352933 0.866531 0.352933
vn -0.590568 -0.549962 -0.590568
vn -0.590568 -0.549962 -0.590568
vn -0.515434 -0.684584 -0.515434
vn -0.515434 -0.684584 -0.515434
vn -0.665213 0.339131 0.665193
vn -0.665213 0.339131 0.665193
vn -0.678799 0.283420 0.677425
vn -0.789797 0.222614 0.571545
vn 0.617253 -0.487849 0.617253
vn 0.617253 -0.487849 0.617253
vn 0.617253 -0.487849 0.617253
vn 0.617253 -0.487849 0.617253
vn 0.660237 0.357978 -0.660257
vn 0.660237 0.357978 -0.660257
vn 0.580757 0.223473 -0.782804
vn 0.675375 0.293048 -0.676750
vn -0.655202 -0.376060 -0.655202
vn -0.655202 -0.376060 -0.655202
vn -0.655202 -0.376060 -0.655202
vn -0.655202 -0.376060 -0.655202
vn -0.688710 0.285096 0.666633
vn -0.795453 0.223431 0.563323
vn 0.697907 0.160785 0.697907
vn 0.697907 0.160785 0.697907
vn 0.697907 0.160785 0.697907
vn 0.697907 0.160785 0.697907
vn 0.573792 0.217673 -0.789545
vn 0.666633 0.285096 -0.688710
vn -0.610846 0.503721 -0.610846
vn -0.610846 0.503721 -0.610846
vn -0.530372 0.661371 -0.530372
vn -0.684726 0.342364 0.643380
vn -0.684726 0.342364 0.643380
vn 0.605621 0.516185 0.605621
vn 0.605621 0.516185 0.605621
vn 0.656096 0.372928 0.656096
vn 0.656096 0.372928 0.656096
vn 0.643380 0.342364 -0.684726
vn 0.643380 0.342364 -0.684726
vn 0.000000 -1.000000 0.000000
vn 0.000000 -1.000000 0.000000
vn 0.000000 -1.000000 0.000000
vn 0.000000 -1.000000 0.000000
vn 0.998089 0.061741 0.002676
vn 0.992066 0.116777 -0.046561
vn 0.992066 0.116777 -0.046561
vn 0.998089 0.061741 0.002676
vn -0.050353 0.111778 0.992457
vn -0.004876 0.051746 0.998648
vn -0.004876 0.051746 0.998648
vn -0.050353 0.111778 0.992457
vn 0.980598 0.171172 -0.095542
vn 0.980598 0.171172 -0.095542
vn 0.539630 0.646219 0.539630
vn 0.539630 0.646219 0.539630
vn -0.095542 0.171172 0.980598
vn -0.095542 0.171172 0.980598
vn -0.000000 -1.000000 0.000000
vn -0.000000 -1.000000 0.000000
vn -0.425139 -0.799070 -0.425139
vn -0.425139 -0.799070 -0.425139
vn -0.946159 0.082818 0.312930
vn -0.946159 0.082818 0.312930
vn -0.668226 0.327029 -0.668226
vn -0.668226 0.327029 -0.668226
vn 0.347941 0.067712 -0.935068
vn 0.347941 0.067712 -0.935068
s off
g mStoneBolder4
usemtl initialShadingGroup
f 13/1/1 14/2/2 15/3/3
s 1
f 1/47/4 2/48/5 6/44/6 5/43/7
s 2
f 2/4/8 4/5/9 7/6/10 6/7/11
s off
f 17/17/12 16/18/13 18/19/14 19/20/15
s 3
f 3/21/16 1/22/17 5/29/18 8/30/19
s off
f 22/39/20 23/40/21 24/41/22 25/42/23
s 2
f 6/7/11 7/6/10 11/10/24 10/11/25
s off
f 19/20/26 18/19/27 20/23/28 21/24/29
s 3
f 8/30/19 5/29/18 9/31/30 12/32/31
s 4
f 9/46/32 10/45/33 13/49/34
s 2
f 10/11/25 11/10/24 14/13/35 13/14/36
s 5
f 11/26/37 12/25/38 15/3/39 14/2/40
s 3
f 12/32/31 9/31/30 13/33/41 15/34/42
s 6
f 4/50/43 3/51/44 16/52/45 17/53/46
s 7
f 3/21/47 8/30/48 18/35/49 16/36/50
s 8
f 7/6/51 4/5/52 17/8/53 19/9/54
s 7
f 8/30/48 12/32/55 20/37/56 18/35/49
s 5
f 12/25/38 11/26/37 21/24/57 20/23/58
s 8
f 11/10/59 7/6/51 19/9/54 21/12/60
s 6
f 3/51/44 4/50/43 2/54/61 1/28/62
s 1
f 5/43/7 6/44/6 23/40/63 22/39/64
s 2
f 6/7/11 10/11/25 24/15/65 23/16/66
s 4
f 10/45/33 9/46/32 25/42/67 24/41/68
s 3
f 9/31/30 5/29/18 22/38/69 25/27/70
