# This file uses centimeters as units for non-parametric coordinates.

mtllib mLv1Rock08.mtl
g default
v -11.402883 0.066049 92.946228
v -9.465226 0.066049 89.590108
v -12.478465 0.066049 92.325240
v -10.540808 0.066049 88.969120
v -10.639911 0.066049 92.808986
v -9.187659 0.066049 90.293612
v -10.776002 0.661715 89.376487
v -12.228336 0.661715 91.892004
v -10.124526 1.675433 92.500812
v -9.196853 1.675433 90.894036
v -11.031450 1.675433 89.818936
v -11.972888 1.675433 91.449555
v -10.679960 2.786721 91.108948
v -10.973658 2.529045 90.543004
v -11.316931 2.529045 91.137570
v -12.374828 0.066049 90.977957
v -11.640836 0.066049 89.706644
v -12.352604 0.066049 90.426064
v -12.107677 0.066049 90.001838
v -12.338615 0.985988 90.680584
v -11.880261 0.985988 89.886693
v -9.923551 0.066049 92.675477
v -8.934082 0.066049 90.961666
v -9.100718 1.208376 91.115791
v -9.920519 1.208376 92.535727
vt 0.726447 0.205938
vt 0.722337 0.194195
vt 0.730557 0.194195
vt 0.673477 0.129308
vt 0.700582 0.129308
vt 0.700582 0.144922
vt 0.663195 0.144922
vt 0.715885 0.129308
vt 0.718927 0.134751
vt 0.700582 0.171495
vt 0.654176 0.171495
vt 0.715885 0.153423
vt 0.691588 0.193871
vt 0.679862 0.200625
vt 0.649939 0.159252
vt 0.652484 0.152982
vt 0.723085 0.129633
vt 0.729809 0.129633
vt 0.730890 0.135075
vt 0.722004 0.135075
vt 0.753500 0.129753
vt 0.781776 0.129753
vt 0.729327 0.153747
vt 0.723567 0.153747
vt 0.737712 0.171820
vt 0.715182 0.171820
vt 0.806331 0.159971
vt 0.677404 0.234038
vt 0.792503 0.145510
vt 0.753500 0.145510
vt 0.801912 0.172326
vt 0.753500 0.172326
vt 0.775115 0.201723
vt 0.762882 0.194907
vt 0.734362 0.135246
vt 0.737535 0.129753
vt 0.737535 0.154088
vt 0.803676 0.153643
vt 0.808770 0.153356
vt 0.832449 0.153356
vt 0.829855 0.159627
vt 0.810236 0.159627
vt 0.803100 0.145297
vt 0.837854 0.145297
vt 0.831577 0.171870
vt 0.809377 0.171870
vt 0.797113 0.129683
vt 0.843484 0.129683
vt 0.820477 0.201000
vt 0.723774 0.206933
vt 0.677404 0.206933
vt 0.697406 0.191630
vt 0.704130 0.191630
vt 0.723774 0.234038
vn -0.374475 0.901679 -0.216203
vn -0.374475 0.901679 -0.216203
vn -0.374475 0.901679 -0.216203
vn 0.000000 -1.000000 0.000000
vn 0.000000 -1.000000 0.000000
vn 0.000000 -1.000000 -0.000000
vn 0.000000 -1.000000 -0.000000
vn 0.430021 0.788718 -0.439325
vn 0.430021 0.788718 -0.439325
vn 0.511870 0.443215 -0.735900
vn 0.619475 0.377955 -0.688041
vn 0.000000 -1.000000 0.000000
vn 0.000000 -1.000000 0.000000
vn 0.000000 -1.000000 0.000000
vn 0.000000 -1.000000 0.000000
vn -0.150810 0.805435 0.573176
vn -0.150810 0.805435 0.573176
vn -0.296224 0.381105 0.875791
vn -0.378326 0.450262 0.808785
vn 0.864529 0.058768 0.499136
vn 0.864529 0.058768 0.499136
vn 0.864529 0.058768 0.499136
vn 0.864529 0.058768 0.499136
vn 0.492504 0.449383 -0.745315
vn 0.535748 0.423655 -0.730404
vn -0.856254 0.149795 -0.494359
vn -0.856254 0.149795 -0.494359
vn -0.856254 0.149795 -0.494359
vn -0.856254 0.149795 -0.494359
vn -0.370489 0.423438 0.826703
vn -0.399210 0.449383 0.799179
vn 0.692660 0.600246 0.399908
vn 0.690268 0.603910 0.398526
vn 0.594555 0.727099 0.343266
vn 0.428693 0.623438 -0.653871
vn 0.428693 0.623438 -0.653871
vn -0.696857 0.593734 -0.402331
vn -0.696857 0.593734 -0.402331
vn -0.779903 0.434745 -0.450277
vn -0.779903 0.434745 -0.450277
vn -0.351922 0.623438 0.698194
vn -0.351922 0.623438 0.698194
vn -0.000000 -1.000000 -0.000000
vn -0.000000 -1.000000 -0.000000
vn -0.000000 -1.000000 -0.000000
vn -0.000000 -1.000000 -0.000000
vn -0.942711 0.327709 -0.062475
vn -0.977580 0.193178 0.083782
vn -0.976821 0.199775 0.076882
vn -0.942711 0.327709 -0.062475
vn -0.414285 0.189978 -0.890099
vn -0.521625 0.318676 -0.791424
vn -0.521625 0.318676 -0.791424
vn -0.419995 0.196550 -0.885986
vn -0.980341 0.149155 0.129169
vn -0.980341 0.149155 0.129169
vn -0.607168 0.713066 -0.350549
vn -0.607168 0.713066 -0.350549
vn -0.378307 0.149155 -0.913585
vn -0.378307 0.149155 -0.913585
vn 0.000000 -1.000000 0.000000
vn 0.000000 -1.000000 0.000000
vn -0.000000 -1.000000 -0.000000
vn -0.000000 -1.000000 -0.000000
vn 0.944375 0.141722 -0.296768
vn 0.944375 0.141722 -0.296768
vn 0.799696 0.383817 0.461705
vn 0.799696 0.383817 0.461705
vn 0.169249 0.127204 0.977330
vn 0.169249 0.127204 0.977330
s off
g mStoneBolder11
usemtl initialShadingGroup
f 13/1/1 14/2/2 15/3/3
s 1
f 1/47/4 2/48/5 6/44/6 5/43/7
s 2
f 2/4/8 4/5/9 7/6/10 6/7/11
s off
f 17/17/12 16/18/13 18/19/14 19/20/15
s 3
f 3/21/16 1/22/17 5/29/18 8/30/19
s off
f 22/39/20 23/40/21 24/41/22 25/42/23
s 2
f 6/7/11 7/6/10 11/10/24 10/11/25
s off
f 19/20/26 18/19/27 20/23/28 21/24/29
s 3
f 8/30/19 5/29/18 9/31/30 12/32/31
s 4
f 9/46/32 10/45/33 13/49/34
s 2
f 10/11/25 11/10/24 14/13/35 13/14/36
s 5
f 11/26/37 12/25/38 15/3/39 14/2/40
s 3
f 12/32/31 9/31/30 13/33/41 15/34/42
s 6
f 4/50/43 3/51/44 16/52/45 17/53/46
s 7
f 3/21/47 8/30/48 18/35/49 16/36/50
s 8
f 7/6/51 4/5/52 17/8/53 19/9/54
s 7
f 8/30/48 12/32/55 20/37/56 18/35/49
s 5
f 12/25/38 11/26/37 21/24/57 20/23/58
s 8
f 11/10/59 7/6/51 19/9/54 21/12/60
s 6
f 3/51/44 4/50/43 2/54/61 1/28/62
s 1
f 5/43/7 6/44/6 23/40/63 22/39/64
s 2
f 6/7/11 10/11/25 24/15/65 23/16/66
s 4
f 10/45/33 9/46/32 25/42/67 24/41/68
s 3
f 9/31/30 5/29/18 22/38/69 25/27/70
