# This file uses centimeters as units for non-parametric coordinates.

mtllib mLv1Mountain07.mtl
g default
v 29.892656 -1.497264 41.476930
v 37.157396 -1.497264 14.364553
v 14.044547 -1.497264 37.230442
v 21.309287 -1.497264 10.118065
v 36.842314 7.954352 39.587291
v 42.287154 7.954352 19.266868
v 20.427490 7.954352 13.408975
v 14.982342 7.954352 33.730543
v 43.099063 24.039343 37.330235
v 46.577131 24.039343 24.349911
v 19.469754 24.039343 16.983294
v 15.940078 24.039343 30.156224
v 29.819708 41.672501 26.815908
v 23.606772 37.583874 22.577133
v 22.319760 37.583874 27.380326
v 8.230431 -1.497264 23.137916
v 9.283849 -1.497264 19.206504
v 6.282634 1.797299 23.293272
v 7.674686 1.797299 18.098063
v 8.305960 13.099704 22.856037
v 9.208320 13.099704 19.488383
v 43.993089 12.832670 37.950534
v 47.702848 12.832673 24.105534
v 48.784446 16.628401 26.020980
v 45.710818 16.628397 37.491914
vt 0.726447 0.205938
vt 0.722337 0.194195
vt 0.730557 0.194195
vt 0.673477 0.129308
vt 0.700582 0.129308
vt 0.700582 0.144922
vt 0.663195 0.144922
vt 0.715885 0.129308
vt 0.718927 0.134751
vt 0.700582 0.171495
vt 0.654176 0.171495
vt 0.715885 0.153423
vt 0.691588 0.193871
vt 0.679862 0.200625
vt 0.649939 0.159252
vt 0.652484 0.152982
vt 0.723085 0.129633
vt 0.729809 0.129633
vt 0.730890 0.135075
vt 0.722004 0.135075
vt 0.753500 0.129753
vt 0.781776 0.129753
vt 0.729327 0.153747
vt 0.723567 0.153747
vt 0.737712 0.171820
vt 0.715182 0.171820
vt 0.806331 0.159971
vt 0.677404 0.234038
vt 0.792503 0.145510
vt 0.753500 0.145510
vt 0.801912 0.172326
vt 0.753500 0.172326
vt 0.775115 0.201723
vt 0.762882 0.194907
vt 0.734362 0.135246
vt 0.737535 0.129753
vt 0.737535 0.154088
vt 0.803676 0.153643
vt 0.808770 0.153356
vt 0.832449 0.153356
vt 0.829855 0.159627
vt 0.810236 0.159627
vt 0.803100 0.145297
vt 0.837854 0.145297
vt 0.831577 0.171870
vt 0.809377 0.171870
vt 0.797113 0.129683
vt 0.843484 0.129683
vt 0.820477 0.201000
vt 0.723774 0.206933
vt 0.677404 0.206933
vt 0.697406 0.191630
vt 0.704130 0.191630
vt 0.723774 0.234038
vn -0.482115 0.866531 -0.129182
vn -0.482115 0.866531 -0.129182
vn -0.482115 0.866531 -0.129182
vn 0.806731 -0.549962 0.216163
vn 0.806731 -0.549962 0.216163
vn 0.704096 -0.684584 0.188662
vn 0.704096 -0.684584 0.188662
vn 0.243495 0.339131 -0.908681
vn 0.243495 0.339131 -0.908681
vn 0.249145 0.283420 -0.926067
vn 0.398211 0.222614 -0.889871
vn -0.843184 -0.487849 -0.225930
vn -0.843184 -0.487849 -0.225930
vn -0.843184 -0.487849 -0.225930
vn -0.843184 -0.487849 -0.225930
vn -0.241653 0.357978 0.901918
vn -0.241653 0.357978 0.901918
vn -0.111548 0.223473 0.968306
vn -0.246517 0.293048 0.923771
vn 0.895023 -0.376060 0.239820
vn 0.895023 -0.376060 0.239820
vn 0.895023 -0.376060 0.239820
vn 0.895023 -0.376060 0.239820
vn 0.263124 0.285096 -0.921676
vn 0.407221 0.223431 -0.885579
vn -0.953359 0.160785 -0.255452
vn -0.953359 0.160785 -0.255452
vn -0.953359 0.160785 -0.255452
vn -0.953359 0.160785 -0.255452
vn -0.102145 0.217673 0.970662
vn -0.232966 0.285096 0.929756
vn 0.834431 0.503721 0.223585
vn 0.834431 0.503721 0.223585
vn 0.724502 0.661371 0.194130
vn 0.271300 0.342364 -0.899546
vn 0.271300 0.342364 -0.899546
vn -0.827293 0.516185 -0.221673
vn -0.827293 0.516185 -0.221673
vn -0.896244 0.372928 -0.240148
vn -0.896244 0.372928 -0.240148
vn -0.214821 0.342364 0.914680
vn -0.214821 0.342364 0.914680
vn -0.000000 -1.000000 -0.000000
vn -0.000000 -1.000000 -0.000000
vn -0.000000 -1.000000 -0.000000
vn -0.000000 -1.000000 -0.000000
vn -0.865708 0.061741 0.496726
vn -0.835874 0.116777 0.536356
vn -0.835874 0.116777 0.536356
vn -0.865708 0.061741 0.496726
vn -0.452622 0.111778 -0.884669
vn -0.495102 0.051746 -0.867293
vn -0.495102 0.051746 -0.867293
vn -0.452622 0.111778 -0.884669
vn -0.801451 0.171172 0.573041
vn -0.801451 0.171172 0.573041
vn -0.737149 0.646219 -0.197518
vn -0.737149 0.646219 -0.197518
vn -0.407557 0.171172 -0.896994
vn -0.407557 0.171172 -0.896994
vn 0.000000 -1.000000 0.000000
vn 0.000000 -1.000000 0.000000
vn 0.580751 -0.799070 0.155612
vn 0.580751 -0.799070 0.155612
vn 0.662932 0.082818 -0.744085
vn 0.662932 0.082818 -0.744085
vn 0.912814 0.327029 0.244588
vn 0.912814 0.327029 0.244588
vn 0.166208 0.067712 0.983763
vn 0.166208 0.067712 0.983763
s off
g mStoneBolder6
usemtl initialShadingGroup
f 13/1/1 14/2/2 15/3/3
s 1
f 1/47/4 2/48/5 6/44/6 5/43/7
s 2
f 2/4/8 4/5/9 7/6/10 6/7/11
s off
f 17/17/12 16/18/13 18/19/14 19/20/15
s 3
f 3/21/16 1/22/17 5/29/18 8/30/19
s off
f 22/39/20 23/40/21 24/41/22 25/42/23
s 2
f 6/7/11 7/6/10 11/10/24 10/11/25
s off
f 19/20/26 18/19/27 20/23/28 21/24/29
s 3
f 8/30/19 5/29/18 9/31/30 12/32/31
s 4
f 9/46/32 10/45/33 13/49/34
s 2
f 10/11/25 11/10/24 14/13/35 13/14/36
s 5
f 11/26/37 12/25/38 15/3/39 14/2/40
s 3
f 12/32/31 9/31/30 13/33/41 15/34/42
s 6
f 4/50/43 3/51/44 16/52/45 17/53/46
s 7
f 3/21/47 8/30/48 18/35/49 16/36/50
s 8
f 7/6/51 4/5/52 17/8/53 19/9/54
s 7
f 8/30/48 12/32/55 20/37/56 18/35/49
s 5
f 12/25/38 11/26/37 21/24/57 20/23/58
s 8
f 11/10/59 7/6/51 19/9/54 21/12/60
s 6
f 3/51/44 4/50/43 2/54/61 1/28/62
s 1
f 5/43/7 6/44/6 23/40/63 22/39/64
s 2
f 6/7/11 10/11/25 24/15/65 23/16/66
s 4
f 10/45/33 9/46/32 25/42/67 24/41/68
s 3
f 9/31/30 5/29/18 22/38/69 25/27/70
