# This file uses centimeters as units for non-parametric coordinates.

mtllib mLv1Rock09.mtl
g default
v -8.787271 0.066049 93.270494
v -13.238283 0.066049 92.077849
v -9.484413 0.066049 95.872262
v -13.935424 0.066049 94.679617
v -9.097491 1.617711 92.129576
v -12.433474 1.617711 91.235702
v -13.395159 1.617711 94.824381
v -10.058988 1.617711 95.718305
v -9.468030 4.258368 91.102412
v -11.598997 4.258368 90.531421
v -12.808367 4.258368 94.981612
v -10.645780 4.258368 95.561075
v -11.194156 7.153186 93.282470
v -11.890032 6.481960 94.302442
v -11.101496 6.481960 94.513729
v -11.797968 0.066049 96.826760
v -12.443384 0.066049 96.653821
v -11.772464 0.606914 97.146528
v -12.625356 0.606914 96.917996
v -11.844244 2.462418 96.814360
v -12.397109 2.462418 96.666221
v -9.366196 2.418580 90.955641
v -11.639116 2.418580 90.346613
v -11.324659 3.041721 90.169048
v -9.441487 3.041720 90.673643
vt 0.726447 0.205938
vt 0.722337 0.194195
vt 0.730557 0.194195
vt 0.673477 0.129308
vt 0.700582 0.129308
vt 0.700582 0.144922
vt 0.663195 0.144922
vt 0.715885 0.129308
vt 0.718927 0.134751
vt 0.700582 0.171495
vt 0.654176 0.171495
vt 0.715885 0.153423
vt 0.691588 0.193871
vt 0.679862 0.200625
vt 0.649939 0.159252
vt 0.652484 0.152982
vt 0.723085 0.129633
vt 0.729809 0.129633
vt 0.730890 0.135075
vt 0.722004 0.135075
vt 0.753500 0.129753
vt 0.781776 0.129753
vt 0.729327 0.153747
vt 0.723567 0.153747
vt 0.737712 0.171820
vt 0.715182 0.171820
vt 0.806331 0.159971
vt 0.677404 0.234038
vt 0.792503 0.145510
vt 0.753500 0.145510
vt 0.801912 0.172326
vt 0.753500 0.172326
vt 0.775115 0.201723
vt 0.762882 0.194907
vt 0.734362 0.135246
vt 0.737535 0.129753
vt 0.737535 0.154088
vt 0.803676 0.153643
vt 0.808770 0.153356
vt 0.832449 0.153356
vt 0.829855 0.159627
vt 0.810236 0.159627
vt 0.803100 0.145297
vt 0.837854 0.145297
vt 0.831577 0.171870
vt 0.809377 0.171870
vt 0.797113 0.129683
vt 0.843484 0.129683
vt 0.820477 0.201000
vt 0.723774 0.206933
vt 0.677404 0.206933
vt 0.697406 0.191630
vt 0.704130 0.191630
vt 0.723774 0.234038
vn -0.129182 0.866531 0.482115
vn -0.129182 0.866531 0.482115
vn -0.129182 0.866531 0.482115
vn 0.216163 -0.549962 -0.806731
vn 0.216163 -0.549962 -0.806731
vn 0.188662 -0.684584 -0.704096
vn 0.188662 -0.684584 -0.704096
vn -0.908681 0.339131 -0.243495
vn -0.908681 0.339131 -0.243495
vn -0.926067 0.283420 -0.249145
vn -0.889871 0.222614 -0.398211
vn -0.225930 -0.487849 0.843184
vn -0.225930 -0.487849 0.843184
vn -0.225930 -0.487849 0.843184
vn -0.225930 -0.487849 0.843184
vn 0.901918 0.357978 0.241653
vn 0.901918 0.357978 0.241653
vn 0.968306 0.223473 0.111548
vn 0.923771 0.293048 0.246517
vn 0.239820 -0.376060 -0.895023
vn 0.239820 -0.376060 -0.895023
vn 0.239820 -0.376060 -0.895023
vn 0.239820 -0.376060 -0.895023
vn -0.921676 0.285096 -0.263124
vn -0.885579 0.223431 -0.407221
vn -0.255452 0.160785 0.953358
vn -0.255452 0.160785 0.953358
vn -0.255452 0.160785 0.953358
vn -0.255452 0.160785 0.953358
vn 0.970662 0.217673 0.102145
vn 0.929756 0.285096 0.232966
vn 0.223585 0.503721 -0.834431
vn 0.223585 0.503721 -0.834431
vn 0.194130 0.661371 -0.724501
vn -0.899546 0.342364 -0.271300
vn -0.899546 0.342364 -0.271300
vn -0.221673 0.516185 0.827293
vn -0.221673 0.516185 0.827293
vn -0.240148 0.372928 0.896244
vn -0.240148 0.372928 0.896244
vn 0.914680 0.342364 0.214821
vn 0.914680 0.342364 0.214821
vn -0.000000 -1.000000 0.000000
vn -0.000000 -1.000000 0.000000
vn -0.000000 -1.000000 0.000000
vn -0.000000 -1.000000 0.000000
vn 0.496726 0.061741 0.865708
vn 0.536356 0.116777 0.835874
vn 0.536356 0.116777 0.835874
vn 0.496726 0.061741 0.865708
vn -0.884669 0.111778 0.452622
vn -0.867293 0.051746 0.495102
vn -0.867293 0.051746 0.495102
vn -0.884669 0.111778 0.452622
vn 0.573041 0.171172 0.801451
vn 0.573041 0.171172 0.801451
vn -0.197518 0.646219 0.737149
vn -0.197518 0.646219 0.737149
vn -0.896994 0.171172 0.407557
vn -0.896994 0.171172 0.407557
vn 0.000000 -1.000000 -0.000000
vn 0.000000 -1.000000 -0.000000
vn 0.155612 -0.799070 -0.580751
vn 0.155612 -0.799070 -0.580751
vn -0.744085 0.082818 -0.662932
vn -0.744085 0.082818 -0.662932
vn 0.244588 0.327029 -0.912814
vn 0.244588 0.327029 -0.912814
vn 0.983763 0.067712 -0.166208
vn 0.983763 0.067712 -0.166208
s off
g mStoneBolder12
usemtl initialShadingGroup
f 13/1/1 14/2/2 15/3/3
s 1
f 1/47/4 2/48/5 6/44/6 5/43/7
s 2
f 2/4/8 4/5/9 7/6/10 6/7/11
s off
f 17/17/12 16/18/13 18/19/14 19/20/15
s 3
f 3/21/16 1/22/17 5/29/18 8/30/19
s off
f 22/39/20 23/40/21 24/41/22 25/42/23
s 2
f 6/7/11 7/6/10 11/10/24 10/11/25
s off
f 19/20/26 18/19/27 20/23/28 21/24/29
s 3
f 8/30/19 5/29/18 9/31/30 12/32/31
s 4
f 9/46/32 10/45/33 13/49/34
s 2
f 10/11/25 11/10/24 14/13/35 13/14/36
s 5
f 11/26/37 12/25/38 15/3/39 14/2/40
s 3
f 12/32/31 9/31/30 13/33/41 15/34/42
s 6
f 4/50/43 3/51/44 16/52/45 17/53/46
s 7
f 3/21/47 8/30/48 18/35/49 16/36/50
s 8
f 7/6/51 4/5/52 17/8/53 19/9/54
s 7
f 8/30/48 12/32/55 20/37/56 18/35/49
s 5
f 12/25/38 11/26/37 21/24/57 20/23/58
s 8
f 11/10/59 7/6/51 19/9/54 21/12/60
s 6
f 3/51/44 4/50/43 2/54/61 1/28/62
s 1
f 5/43/7 6/44/6 23/40/63 22/39/64
s 2
f 6/7/11 10/11/25 24/15/65 23/16/66
s 4
f 10/45/33 9/46/32 25/42/67 24/41/68
s 3
f 9/31/30 5/29/18 22/38/69 25/27/70
