# This file uses centimeters as units for non-parametric coordinates.

mtllib mLv1Rock10.mtl
g default
v -12.466207 0.066049 97.729470
v -11.887147 0.066049 97.395150
v -12.661629 0.066049 97.390990
v -12.082569 0.066049 97.056669
v -12.473222 0.291201 97.904715
v -11.704934 0.291201 97.461144
v -11.974464 0.291201 96.994255
v -12.742795 0.291201 97.437851
v -12.269437 0.674369 97.937230
v -11.778668 0.674369 97.653884
v -12.109604 0.674369 97.072278
v -12.607655 0.674369 97.359828
v -12.220480 0.869765 97.536683
v -12.253734 0.829774 97.360631
v -12.356319 0.829774 97.419858
v -12.522184 0.066049 97.055675
v -12.438218 0.066049 97.007197
v -12.557610 0.144530 97.025483
v -12.446652 0.144530 96.961421
v -12.516164 0.413771 97.052200
v -12.444238 0.413771 97.010673
v -12.169295 0.407409 97.907583
v -11.873596 0.407409 97.736861
v -11.887642 0.497829 97.787344
v -12.132635 0.497829 97.928791
vt 0.726447 0.205938
vt 0.722337 0.194195
vt 0.730557 0.194195
vt 0.673477 0.129308
vt 0.700582 0.129308
vt 0.700582 0.144922
vt 0.663195 0.144922
vt 0.715885 0.129308
vt 0.718927 0.134751
vt 0.700582 0.171495
vt 0.654176 0.171495
vt 0.715885 0.153423
vt 0.691588 0.193871
vt 0.679862 0.200625
vt 0.649939 0.159252
vt 0.652484 0.152982
vt 0.723085 0.129633
vt 0.729809 0.129633
vt 0.730890 0.135075
vt 0.722004 0.135075
vt 0.753500 0.129753
vt 0.781776 0.129753
vt 0.729327 0.153747
vt 0.723567 0.153747
vt 0.737712 0.171820
vt 0.715182 0.171820
vt 0.806331 0.159971
vt 0.677404 0.234038
vt 0.792503 0.145510
vt 0.753500 0.145510
vt 0.801912 0.172326
vt 0.753500 0.172326
vt 0.775115 0.201723
vt 0.762882 0.194907
vt 0.734362 0.135246
vt 0.737535 0.129753
vt 0.737535 0.154088
vt 0.803676 0.153643
vt 0.808770 0.153356
vt 0.832449 0.153356
vt 0.829855 0.159627
vt 0.810236 0.159627
vt 0.803100 0.145297
vt 0.837854 0.145297
vt 0.831577 0.171870
vt 0.809377 0.171870
vt 0.797113 0.129683
vt 0.843484 0.129683
vt 0.820477 0.201000
vt 0.723774 0.206933
vt 0.677404 0.206933
vt 0.697406 0.191630
vt 0.704130 0.191630
vt 0.723774 0.234038
vn -0.115079 0.973153 -0.199322
vn -0.115079 0.973153 -0.199322
vn -0.115079 0.973153 -0.199322
vn 0.417595 -0.549962 0.723295
vn 0.417595 -0.549962 0.723295
vn 0.394865 -0.613454 0.683926
vn 0.395261 -0.612433 0.684612
vn 0.757433 -0.484854 -0.437277
vn 0.757433 -0.484854 -0.437277
vn 0.861926 0.110453 -0.494857
vn 0.884238 0.194248 -0.424724
vn -0.436464 -0.487849 -0.755978
vn -0.436464 -0.487849 -0.755978
vn -0.436464 -0.487849 -0.755978
vn -0.436464 -0.487849 -0.755978
vn -0.799523 -0.384263 0.461633
vn -0.799523 -0.384263 0.461633
vn -0.810766 0.224634 0.540553
vn -0.854717 0.152357 0.496231
vn 0.463298 -0.376060 0.802455
vn 0.463298 -0.376060 0.802455
vn 0.463298 -0.376060 0.802455
vn 0.463298 -0.376060 0.802455
vn 0.730866 0.537988 -0.420004
vn 0.822914 0.484173 -0.297303
vn -0.493495 0.160785 -0.854758
vn -0.493495 0.160785 -0.854758
vn -0.493495 0.160785 -0.854758
vn -0.493495 0.160785 -0.854758
vn -0.705997 0.431128 0.561869
vn -0.757993 0.478414 0.443358
vn 0.371128 0.670116 0.642813
vn 0.371558 0.669163 0.643557
vn 0.259150 0.855199 0.448861
vn 0.440073 0.860415 -0.256948
vn 0.440073 0.860415 -0.256948
vn -0.363519 0.686598 -0.629633
vn -0.361462 0.690928 -0.626070
vn -0.329199 0.752669 -0.570190
vn -0.329199 0.752669 -0.570190
vn -0.540024 0.776782 0.324011
vn -0.540024 0.776782 0.324011
vn -0.000000 -1.000000 -0.000000
vn -0.000000 -1.000000 -0.000000
vn -0.000000 -1.000000 -0.000000
vn -0.000000 -1.000000 -0.000000
vn -0.889408 -0.323813 -0.322642
vn -0.897289 0.090615 -0.432044
vn -0.909924 0.000422 -0.414774
vn -0.889408 -0.323813 -0.322642
vn 0.045773 0.083724 -0.995437
vn 0.157530 -0.376940 -0.912743
vn 0.157530 -0.376940 -0.912743
vn 0.072188 -0.019517 -0.997200
vn -0.871148 0.200546 -0.448198
vn -0.871149 0.200546 -0.448198
vn -0.381576 0.646219 -0.660909
vn -0.381576 0.646219 -0.660909
vn 0.016520 0.194686 -0.980727
vn 0.016520 0.194686 -0.980727
vn 0.000000 -1.000000 0.000000
vn 0.000000 -1.000000 0.000000
vn 0.300619 -0.799070 0.520687
vn 0.300619 -0.799070 0.520687
vn 0.829440 -0.125776 0.544251
vn 0.829440 -0.125776 0.544251
vn 0.472507 0.327029 0.818407
vn 0.472507 0.327029 0.818406
vn -0.002683 -0.111370 0.993775
vn -0.002683 -0.111370 0.993775
s off
g mStoneBolder13
usemtl initialShadingGroup
f 13/1/1 14/2/2 15/3/3
s 1
f 1/47/4 2/48/5 6/44/6 5/43/7
s 2
f 2/4/8 4/5/9 7/6/10 6/7/11
s off
f 17/17/12 16/18/13 18/19/14 19/20/15
s 3
f 3/21/16 1/22/17 5/29/18 8/30/19
s off
f 22/39/20 23/40/21 24/41/22 25/42/23
s 2
f 6/7/11 7/6/10 11/10/24 10/11/25
s off
f 19/20/26 18/19/27 20/23/28 21/24/29
s 3
f 8/30/19 5/29/18 9/31/30 12/32/31
s 4
f 9/46/32 10/45/33 13/49/34
s 2
f 10/11/25 11/10/24 14/13/35 13/14/36
s 5
f 11/26/37 12/25/38 15/3/39 14/2/40
s 3
f 12/32/31 9/31/30 13/33/41 15/34/42
s 6
f 4/50/43 3/51/44 16/52/45 17/53/46
s 7
f 3/21/47 8/30/48 18/35/49 16/36/50
s 8
f 7/6/51 4/5/52 17/8/53 19/9/54
s 7
f 8/30/48 12/32/55 20/37/56 18/35/49
s 5
f 12/25/38 11/26/37 21/24/57 20/23/58
s 8
f 11/10/59 7/6/51 19/9/54 21/12/60
s 6
f 3/51/44 4/50/43 2/54/61 1/28/62
s 1
f 5/43/7 6/44/6 23/40/63 22/39/64
s 2
f 6/7/11 10/11/25 24/15/65 23/16/66
s 4
f 10/45/33 9/46/32 25/42/67 24/41/68
s 3
f 9/31/30 5/29/18 22/38/69 25/27/70
