# This file uses centimeters as units for non-parametric coordinates.

mtllib mLv1Instruction03.mtl
g default
v -7.784677 3.872237 59.119569
v -12.823345 3.872235 59.119569
v -7.784677 0.177728 58.129628
v -12.823345 0.177726 58.129628
vt 0.000000 0.000001
vt 1.000000 0.000000
vt 1.000000 1.000000
vt 0.000000 1.000000
vn -0.000000 0.258819 -0.965926
vn -0.000000 0.258819 -0.965926
vn -0.000000 0.258819 -0.965926
vn -0.000000 0.258819 -0.965926
s off
g mInstruction03
usemtl lambert11SG
f 3/1/1 4/2/2 2/3/3 1/4/4
