# This file uses centimeters as units for non-parametric coordinates.

mtllib mLv1Skybox.mtl
g default
v -999.000000 -162.871979 1152.000000
v 1001.000000 -162.871979 1152.000000
v -999.000000 1837.128021 1152.000000
v 1001.000000 1837.128021 1152.000000
v -999.000000 1837.128021 -848.000000
v 1001.000000 1837.128021 -848.000000
v -999.000000 -162.871979 -848.000000
v 1001.000000 -162.871979 -848.000000
vt 0.491010 0.623853
vt 0.255976 0.623853
vt 0.491010 0.388819
vt 0.255976 0.388819
vt 0.491010 0.153785
vt 0.961078 0.388819
vt 0.726044 0.623853
vt 0.255976 0.858887
vt 0.961078 0.623853
vt 0.255976 0.153785
vt 0.020942 0.623853
vt 0.020942 0.388819
vt 0.491010 0.858886
vt 0.726044 0.388819
vn 0.577350 0.577350 -0.577350
vn 0.707107 0.000000 -0.707107
vn -0.707107 0.000000 -0.707107
vn -0.577350 0.577350 -0.577350
vn 0.000000 -1.000000 0.000000
vn 0.000000 -1.000000 0.000000
vn 0.000000 -1.000000 0.000000
vn 0.000000 -1.000000 0.000000
vn 0.707107 0.000000 0.707107
vn 0.577350 0.577350 0.577350
vn -0.577350 0.577350 0.577350
vn -0.707107 0.000000 0.707107
s 1
g pCube5
usemtl lambert4SG
f 1/1/1 3/3/2 4/4/3 2/2/4
s off
f 3/3/5 5/5/6 6/10/7 4/4/8
s 1
f 5/14/9 7/7/10 8/9/11 6/6/12
f 7/13/10 1/1/1 2/2/4 8/8/11
f 2/2/4 4/4/3 6/12/12 8/11/11
f 7/7/10 5/14/9 3/3/2 1/1/1
