# This file uses centimeters as units for non-parametric coordinates.

mtllib mLv1Mountain14.mtl
g default
v -7.927362 -14.569464 110.159417
v -39.847025 -12.842490 98.255096
v -27.464319 -17.379768 116.356324
v -42.136598 -15.609108 108.978811
v -15.940232 -16.404587 117.089668
v -9.527215 -10.917474 94.955836
v -21.949975 -17.006571 116.410890
v -40.741821 -14.925362 103.555920
v -8.444948 -14.569464 115.745077
v -7.033215 -11.001848 103.170863
v -41.080370 -6.461713 111.912652
v -36.563376 -6.308724 115.715308
v -15.806780 -6.072975 117.464098
v -10.540325 -5.066803 116.659130
v -11.578256 -5.066804 93.999561
v -29.664813 -7.847261 117.135001
v -22.472586 -7.816155 116.985671
v -40.369639 -3.652075 100.687083
v -41.264432 -5.734943 105.987907
v -7.780715 -5.066803 110.159419
v -8.603329 -5.066804 103.170862
v -36.000001 0.092663 110.752283
v -36.000001 0.092664 114.000000
v -18.025526 0.092662 114.000000
v -11.999999 0.092663 114.000000
v -12.000001 0.092662 108.000000
v -11.999999 0.092663 96.000000
v -12.000001 0.092664 102.000000
v -30.000001 0.092662 114.000000
v -24.000001 0.092662 114.000000
v -35.999998 0.092663 97.944373
v -35.999999 0.092662 105.220273
v -10.178847 0.092662 111.076363
v -10.178847 0.092662 108.000000
v -36.532003 -16.876475 116.848472
v -39.320075 -16.562207 112.393363
v -36.618799 -9.463551 116.879626
v -39.997918 -10.155585 112.974341
v -30.956038 -18.315149 117.004255
v -32.184344 -12.363399 117.197534
vt 0.666888 0.400517
vt 0.666888 0.380339
vt 0.642577 0.380339
vt 0.642577 0.400517
vt 0.634347 0.413381
vt 0.633188 0.394803
vt 0.618267 0.385687
vt 0.628272 0.378099
vt 0.663765 0.239408
vt 0.663765 0.281492
vt 0.663765 0.308812
vt 0.639455 0.239408
vt 0.639455 0.281492
vt 0.639455 0.308812
vt 0.615144 0.239408
vt 0.625150 0.287497
vt 0.630066 0.310850
vt 0.608032 0.239408
vt 0.615144 0.287497
vt 0.490546 0.245431
vt 0.505004 0.245431
vt 0.505005 0.275460
vt 0.493122 0.277284
vt 0.520353 0.245431
vt 0.516807 0.275038
vt 0.505004 0.293520
vt 0.484009 0.293520
vt 0.481107 0.245431
vt 0.532177 0.245431
vt 0.526000 0.293520
vt 0.510919 0.319462
vt 0.495109 0.331795
vt 0.463013 0.245431
vt 0.463013 0.293520
vt 0.546995 0.245431
vt 0.546995 0.293520
vt 0.526728 0.319463
vt 0.479300 0.331795
vt 0.442018 0.245431
vt 0.442018 0.293520
vt 0.567991 0.245431
vt 0.569971 0.293520
vt 0.542538 0.325522
vt 0.463491 0.325522
vt 0.588987 0.245431
vt 0.588986 0.293520
vt 0.556058 0.325522
vt 0.561292 0.325522
vn 0.000000 1.000000 0.000000
vn 0.000000 1.000000 0.000000
vn 0.000000 1.000000 -0.000000
vn 0.000000 1.000000 -0.000000
vn 0.000001 1.000000 -0.000000
vn 0.000001 1.000000 -0.000000
vn -0.801200 -0.070651 0.594211
vn -0.801200 -0.070651 0.594211
vn -0.801200 -0.070651 0.594211
vn -0.801200 -0.070651 0.594211
vn 0.175971 -0.046471 0.983298
vn 0.175971 -0.046471 0.983298
vn 0.175971 -0.046471 0.983298
vn 0.175971 -0.046471 0.983298
vn 0.009688 -0.070695 0.997451
vn -0.035206 -0.060608 0.997541
vn -0.039907 -0.059543 0.997428
vn 0.009688 -0.070695 0.997451
vn -0.081619 -0.050026 0.995407
vn -0.081619 -0.050026 0.995407
vn -0.985281 -0.010885 -0.170595
vn -0.990488 0.022688 -0.135712
vn -0.990625 0.023834 -0.134514
vn -0.985281 -0.010885 -0.170595
vn -0.993426 0.057819 -0.098805
vn -0.993426 0.057819 -0.098805
vn -0.056923 -0.022363 0.998128
vn -0.056923 -0.022363 0.998128
vn -0.056923 -0.022363 0.998128
vn -0.056923 -0.022363 0.998128
vn 0.961564 0.086054 0.260748
vn 0.961564 0.086054 0.260748
vn 0.941434 0.157411 0.298201
vn 0.926006 0.200304 0.319987
vn 0.995371 0.091780 0.028521
vn 0.977581 0.172590 -0.120617
vn 0.957165 0.247160 -0.150822
vn 0.975081 0.221345 -0.014936
vn 0.921544 0.259726 -0.288614
vn 0.924044 0.285269 -0.254486
vn -0.797028 0.510497 0.322707
vn -0.364880 0.325832 0.872179
vn -0.356213 0.399217 0.844830
vn -0.783525 0.573464 0.239222
vn -0.044340 0.431468 0.901038
vn 0.019693 0.480460 0.876796
vn 0.019692 0.480460 0.876796
vn -0.051878 0.425483 0.903478
vn -0.031722 0.313066 0.949202
vn -0.036597 0.377682 0.925212
vn -0.031706 0.375988 0.926082
vn -0.027308 0.341652 0.939430
vn -0.690106 0.720297 0.070192
vn -0.735554 0.674824 0.059774
vn -0.731785 0.678829 0.060676
vn -0.690106 0.720297 0.070192
vn 0.832129 0.379392 0.404504
vn 0.832129 0.379392 0.404504
vn 0.922664 0.360791 -0.136092
vn 0.915894 0.394379 -0.074857
vn 0.924776 0.317648 -0.209496
vn -0.699912 0.123678 0.703440
vn -0.321786 0.171015 0.931240
vn -0.804109 -0.112355 0.583768
vn -0.804109 -0.112355 0.583768
vn -0.804109 -0.112355 0.583768
vn -0.804109 -0.112355 0.583768
vn 0.144238 -0.030146 0.989084
vn 0.144238 -0.030146 0.989084
vn 0.144238 -0.030146 0.989084
vn 0.144238 -0.030146 0.989084
vn -0.078543 0.183093 0.979953
s 1
g mMountain012
usemtl initialShadingGroup
f 25/5/1 33/6/2 34/3/3 26/4/4
f 34/3/3 27/2/5 28/1/6 26/4/4
s off
f 36/20/7 35/21/8 37/22/9 38/23/10
f 5/41/11 9/45/12 14/46/13 13/42/14
s 2
f 3/29/15 7/35/16 17/36/17 16/30/18
f 7/35/16 5/41/19 13/42/20 17/36/17
s 3
f 2/39/21 8/33/22 19/34/23 18/40/24
f 8/33/22 4/28/25 11/27/26 19/34/23
s off
f 35/21/27 39/24/28 40/25/29 37/22/30
s 4
f 9/18/31 1/15/32 20/16/33 14/19/34
s 5
f 1/15/35 10/12/36 21/13/37 20/16/38
f 10/12/36 6/9/39 15/10/40 21/13/37
s 6
f 11/27/41 12/26/42 23/31/43 22/32/44
f 13/42/45 14/46/46 25/48/47 24/47/48
f 16/30/49 17/36/50 30/43/51 29/37/52
f 17/36/50 13/42/45 24/47/48 30/43/51
f 18/40/53 19/34/54 32/38/55 31/44/56
f 19/34/54 11/27/41 22/32/44 32/38/55
f 12/26/42 16/30/49 29/37/52 23/31/43
s 4
f 14/7/34 20/8/33 33/6/57 25/5/58
s 5
f 20/16/38 21/13/37 34/14/59 33/17/60
f 21/13/37 15/10/40 27/11/61 34/14/59
s 6
f 12/26/42 11/27/41 38/23/62 37/22/63
s off
f 11/27/64 4/28/65 36/20/66 38/23/67
f 3/29/68 16/30/69 40/25/70 39/24/71
s 6
f 16/30/49 12/26/42 37/22/63 40/25/72
