# This file uses centimeters as units for non-parametric coordinates.

mtllib mLv1Rock02.mtl
g default
v 9.771368 0.066049 39.246822
v 13.203210 0.066049 33.302697
v 6.296824 0.066049 37.240793
v 9.728666 0.066049 31.296668
v 11.532461 2.377260 39.240330
v 14.104588 2.377260 34.785275
v 9.312108 2.377260 32.018168
v 6.739836 2.377260 36.473474
v 13.153144 6.310535 39.103202
v 14.796173 6.310535 36.257392
v 8.859676 6.310535 32.801803
v 7.192267 6.310535 35.689840
v 10.682022 10.622385 35.779293
v 9.482804 9.622590 34.384888
v 8.874823 9.622590 35.437942
v 5.815443 0.066049 33.544188
v 6.313075 0.066049 32.682264
v 5.345544 0.871671 33.457608
v 6.003145 0.871671 32.318609
v 5.851123 3.635457 33.482388
v 6.277395 3.635457 32.744063
v 13.325053 3.570159 39.306298
v 15.077532 3.570159 36.270916
v 15.211777 4.498332 36.791795
v 13.759804 4.498331 39.306686
vt 0.726447 0.205938
vt 0.722337 0.194195
vt 0.730557 0.194195
vt 0.673477 0.129308
vt 0.700582 0.129308
vt 0.700582 0.144922
vt 0.663195 0.144922
vt 0.715885 0.129308
vt 0.718927 0.134751
vt 0.700582 0.171495
vt 0.654176 0.171495
vt 0.715885 0.153423
vt 0.691588 0.193871
vt 0.679862 0.200625
vt 0.649939 0.159252
vt 0.652484 0.152982
vt 0.723085 0.129633
vt 0.729809 0.129633
vt 0.730890 0.135075
vt 0.722004 0.135075
vt 0.753500 0.129753
vt 0.781776 0.129753
vt 0.729327 0.153747
vt 0.723567 0.153747
vt 0.737712 0.171820
vt 0.715182 0.171820
vt 0.806331 0.159971
vt 0.677404 0.234038
vt 0.792503 0.145510
vt 0.753500 0.145510
vt 0.801912 0.172326
vt 0.753500 0.172326
vt 0.775115 0.201723
vt 0.762882 0.194907
vt 0.734362 0.135246
vt 0.737535 0.129753
vt 0.737535 0.154088
vt 0.803676 0.153643
vt 0.808770 0.153356
vt 0.832449 0.153356
vt 0.829855 0.159627
vt 0.810236 0.159627
vt 0.803100 0.145297
vt 0.837854 0.145297
vt 0.831577 0.171870
vt 0.809377 0.171870
vt 0.797113 0.129683
vt 0.843484 0.129683
vt 0.820477 0.201000
vt 0.723774 0.206933
vt 0.677404 0.206933
vt 0.697406 0.191630
vt 0.704130 0.191630
vt 0.723774 0.234038
vn -0.432253 0.866531 -0.249561
vn -0.432253 0.866531 -0.249561
vn -0.432253 0.866531 -0.249561
vn 0.723295 -0.549963 0.417595
vn 0.723295 -0.549963 0.417595
vn 0.631275 -0.684584 0.364467
vn 0.631275 -0.684584 0.364467
vn 0.470382 0.339131 -0.814697
vn 0.470382 0.339131 -0.814697
vn 0.480339 0.283420 -0.830029
vn 0.614958 0.222614 -0.756485
vn -0.755978 -0.487849 -0.436464
vn -0.755978 -0.487849 -0.436464
vn -0.755978 -0.487849 -0.436464
vn -0.755978 -0.487849 -0.436464
vn -0.466853 0.357978 0.808641
vn -0.466853 0.357978 0.808641
vn -0.358363 0.223473 0.906441
vn -0.477207 0.293048 0.828491
vn 0.802455 -0.376060 0.463298
vn 0.802455 -0.376060 0.463298
vn 0.802455 -0.376060 0.463298
vn 0.802455 -0.376060 0.463298
vn 0.492705 0.285096 -0.822169
vn 0.622550 0.223431 -0.750007
vn -0.854758 0.160785 -0.493495
vn -0.854758 0.160785 -0.493495
vn -0.854758 0.160785 -0.493495
vn -0.854758 0.160785 -0.493495
vn -0.349891 0.217673 0.911150
vn -0.465667 0.285096 0.837780
vn 0.748130 0.503721 0.431933
vn 0.748130 0.503721 0.431933
vn 0.649570 0.661371 0.375030
vn 0.494875 0.342364 -0.798678
vn 0.494875 0.342364 -0.798678
vn -0.741731 0.516185 -0.428239
vn -0.741731 0.516185 -0.428239
vn -0.803551 0.372928 -0.463930
vn -0.803551 0.372928 -0.463930
vn -0.444238 0.342364 0.827913
vn -0.444238 0.342364 0.827913
vn -0.000000 -1.000000 -0.000000
vn -0.000000 -1.000000 -0.000000
vn -0.000000 -1.000000 -0.000000
vn -0.000000 -1.000000 -0.000000
vn -0.964772 0.061741 0.255739
vn -0.946212 0.116777 0.301740
vn -0.946212 0.116777 0.301740
vn -0.964772 0.061741 0.255739
vn -0.208230 0.111778 -0.971672
vn -0.253760 0.051746 -0.965882
vn -0.253760 0.051746 -0.965882
vn -0.208230 0.111778 -0.971672
vn -0.922457 0.171172 0.346084
vn -0.922457 0.171172 0.346084
vn -0.660909 0.646219 -0.381576
vn -0.660909 0.646219 -0.381576
vn -0.161510 0.171172 -0.971913
vn -0.161510 0.171172 -0.971913
vn 0.000000 -1.000000 0.000000
vn 0.000000 -1.000000 0.000000
vn 0.520687 -0.799070 0.300619
vn 0.520687 -0.799070 0.300619
vn 0.832927 0.082818 -0.547151
vn 0.832927 0.082818 -0.547151
vn 0.818407 0.327029 0.472507
vn 0.818407 0.327029 0.472507
vn -0.094072 0.067712 0.993260
vn -0.094072 0.067712 0.993260
s off
g mStoneBolder2
usemtl initialShadingGroup
f 13/1/1 14/2/2 15/3/3
s 1
f 1/47/4 2/48/5 6/44/6 5/43/7
s 2
f 2/4/8 4/5/9 7/6/10 6/7/11
s off
f 17/17/12 16/18/13 18/19/14 19/20/15
s 3
f 3/21/16 1/22/17 5/29/18 8/30/19
s off
f 22/39/20 23/40/21 24/41/22 25/42/23
s 2
f 6/7/11 7/6/10 11/10/24 10/11/25
s off
f 19/20/26 18/19/27 20/23/28 21/24/29
s 3
f 8/30/19 5/29/18 9/31/30 12/32/31
s 4
f 9/46/32 10/45/33 13/49/34
s 2
f 10/11/25 11/10/24 14/13/35 13/14/36
s 5
f 11/26/37 12/25/38 15/3/39 14/2/40
s 3
f 12/32/31 9/31/30 13/33/41 15/34/42
s 6
f 4/50/43 3/51/44 16/52/45 17/53/46
s 7
f 3/21/47 8/30/48 18/35/49 16/36/50
s 8
f 7/6/51 4/5/52 17/8/53 19/9/54
s 7
f 8/30/48 12/32/55 20/37/56 18/35/49
s 5
f 12/25/38 11/26/37 21/24/57 20/23/58
s 8
f 11/10/59 7/6/51 19/9/54 21/12/60
s 6
f 3/51/44 4/50/43 2/54/61 1/28/62
s 1
f 5/43/7 6/44/6 23/40/63 22/39/64
s 2
f 6/7/11 10/11/25 24/15/65 23/16/66
s 4
f 10/45/33 9/46/32 25/42/67 24/41/68
s 3
f 9/31/30 5/29/18 22/38/69 25/27/70
