# This file uses centimeters as units for non-parametric coordinates.

mtllib mIceBridge.mtl
g default
v 2.285484 0.000000 293.733887
v 5.952492 0.000000 293.733887
v 2.285484 0.094184 293.733887
v 5.952492 0.094184 293.733887
v 2.285484 0.094184 279.042419
v 5.952492 0.094184 279.042419
v 2.285484 0.000000 279.042419
v 5.952492 0.000000 279.042419
v 2.285484 0.094184 278.824097
v 5.952492 0.094184 278.824097
v 5.952492 0.000000 278.824097
v 2.285484 0.000000 278.824097
v 2.285484 0.094184 278.597992
v 5.952492 0.094184 278.597992
v 5.952492 0.000000 278.597992
v 2.285484 0.000000 278.597992
v 2.285484 0.094184 278.359497
v 5.952492 0.094184 278.359497
v 5.952492 0.000000 278.359497
v 2.285484 0.000000 278.359497
v 2.285484 0.205647 293.733887
v 5.952492 0.205647 293.733887
v 5.952492 0.205647 279.042419
v 2.285484 0.205647 279.042419
v 5.952492 0.205647 278.824097
v 2.285484 0.205647 278.824097
v 5.952492 0.205647 278.597992
v 2.285484 0.205647 278.597992
v 2.285484 0.301380 293.733887
v 5.952492 0.301380 293.733887
v 5.952492 0.301380 279.042419
v 2.285484 0.301380 279.042419
v 5.952492 0.301380 278.824097
v 2.285484 0.301380 278.824097
v 2.285484 0.412164 293.733887
v 5.952492 0.412164 293.733887
v 5.952492 0.412164 279.042419
v 2.285484 0.412164 279.042419
v 5.952492 0.094184 293.952209
v 2.285484 0.094184 293.952209
v 2.285484 0.000000 293.952209
v 5.952492 0.000000 293.952209
v 5.952492 0.094184 294.178314
v 2.285484 0.094184 294.178314
v 2.285484 0.000000 294.178314
v 5.952492 0.000000 294.178314
v 5.952492 0.094184 294.416809
v 2.285484 0.094184 294.416809
v 2.285484 0.000000 294.416809
v 5.952492 0.000000 294.416809
v 2.285484 0.205647 293.952209
v 5.952492 0.205647 293.952209
v 2.285484 0.205647 294.178314
v 5.952492 0.205647 294.178314
v 2.285484 0.301380 293.952209
v 5.952492 0.301380 293.952209
vt 0.375000 0.000000
vt 0.625000 0.000000
vt 0.375000 0.250000
vt 0.625000 0.250000
vt 0.375000 0.500000
vt 0.625000 0.500000
vt 0.375000 0.750000
vt 0.625000 0.750000
vt 0.375000 1.000000
vt 0.625000 1.000000
vt 0.875000 0.000000
vt 0.875000 0.250000
vt 0.125000 0.000000
vt 0.125000 0.250000
vt 0.375000 0.500000
vt 0.625000 0.500000
vt 0.625000 0.750000
vt 0.375000 0.750000
vt 0.375000 0.500000
vt 0.625000 0.500000
vt 0.625000 0.750000
vt 0.375000 0.750000
vt 0.375000 0.500000
vt 0.625000 0.500000
vt 0.625000 0.750000
vt 0.375000 0.750000
vt 0.375000 0.250000
vt 0.625000 0.250000
vt 0.625000 0.500000
vt 0.375000 0.500000
vt 0.625000 0.500000
vt 0.375000 0.500000
vt 0.625000 0.500000
vt 0.375000 0.500000
vt 0.375000 0.250000
vt 0.625000 0.250000
vt 0.625000 0.500000
vt 0.375000 0.500000
vt 0.625000 0.500000
vt 0.375000 0.500000
vt 0.375000 0.250000
vt 0.625000 0.250000
vt 0.625000 0.500000
vt 0.375000 0.500000
vt 0.375000 0.500000
vt 0.625000 0.500000
vt 0.625000 0.750000
vt 0.375000 0.750000
vt 0.375000 0.500000
vt 0.625000 0.500000
vt 0.625000 0.500000
vt 0.375000 0.500000
vt 0.625000 0.500000
vt 0.625000 0.750000
vt 0.625000 0.750000
vt 0.625000 0.500000
vt 0.375000 0.750000
vt 0.375000 0.750000
vt 0.375000 0.500000
vt 0.375000 0.500000
vt 0.375000 0.500000
vt 0.625000 0.500000
vt 0.625000 0.500000
vt 0.375000 0.500000
vt 0.625000 0.750000
vt 0.625000 0.500000
vt 0.375000 0.750000
vt 0.375000 0.500000
vt 0.625000 0.500000
vt 0.375000 0.500000
vt 0.375000 0.500000
vt 0.625000 0.500000
vn 0.000000 1.000000 0.000000
vn 0.000000 1.000000 0.000000
vn 0.000000 1.000000 0.000000
vn 0.000000 1.000000 0.000000
vn 0.000000 0.000000 -1.000000
vn 0.000000 0.000000 -1.000000
vn 0.000000 0.000000 -1.000000
vn 0.000000 0.000000 -1.000000
vn 0.000000 -1.000000 0.000000
vn 0.000000 -1.000000 0.000000
vn 0.000000 -1.000000 0.000000
vn 0.000000 -1.000000 0.000000
vn 1.000000 0.000000 0.000000
vn 1.000000 0.000000 0.000000
vn 1.000000 0.000000 0.000000
vn 1.000000 0.000000 0.000000
vn -1.000000 0.000000 0.000000
vn -1.000000 0.000000 0.000000
vn -1.000000 0.000000 0.000000
vn -1.000000 0.000000 0.000000
vn 0.000000 1.000000 0.000000
vn 0.000000 1.000000 0.000000
vn 0.000000 1.000000 0.000000
vn 0.000000 1.000000 0.000000
vn 1.000000 0.000000 0.000000
vn 1.000000 0.000000 0.000000
vn 1.000000 0.000000 0.000000
vn 1.000000 0.000000 0.000000
vn 0.000000 -1.000000 0.000000
vn 0.000000 -1.000000 0.000000
vn 0.000000 -1.000000 0.000000
vn 0.000000 -1.000000 0.000000
vn -1.000000 0.000000 0.000000
vn -1.000000 0.000000 0.000000
vn -1.000000 0.000000 0.000000
vn -1.000000 0.000000 0.000000
vn 0.000000 1.000000 0.000000
vn 0.000000 1.000000 0.000000
vn 0.000000 1.000000 0.000000
vn 0.000000 1.000000 0.000000
vn 1.000000 0.000000 0.000000
vn 1.000000 0.000000 0.000000
vn 1.000000 0.000000 0.000000
vn 1.000000 0.000000 0.000000
vn 0.000000 -1.000000 0.000000
vn 0.000000 -1.000000 0.000000
vn 0.000000 -1.000000 0.000000
vn 0.000000 -1.000000 0.000000
vn -1.000000 0.000000 0.000000
vn -1.000000 0.000000 0.000000
vn -1.000000 0.000000 0.000000
vn -1.000000 0.000000 0.000000
vn 0.000000 1.000000 0.000000
vn 0.000000 1.000000 0.000000
vn 0.000000 1.000000 0.000000
vn 0.000000 1.000000 0.000000
vn 1.000000 0.000000 0.000000
vn 1.000000 0.000000 0.000000
vn 1.000000 0.000000 0.000000
vn 1.000000 0.000000 0.000000
vn 0.000000 -1.000000 0.000000
vn 0.000000 -1.000000 0.000000
vn 0.000000 -1.000000 0.000000
vn 0.000000 -1.000000 0.000000
vn -1.000000 0.000000 0.000000
vn -1.000000 0.000000 0.000000
vn -1.000000 0.000000 0.000000
vn -1.000000 0.000000 0.000000
vn 1.000000 0.000000 0.000000
vn 1.000000 0.000000 0.000000
vn 1.000000 0.000000 0.000000
vn 1.000000 0.000000 0.000000
vn -1.000000 0.000000 0.000000
vn -1.000000 0.000000 0.000000
vn -1.000000 0.000000 0.000000
vn -1.000000 0.000000 0.000000
vn 1.000000 0.000000 0.000000
vn 1.000000 0.000000 0.000000
vn 1.000000 0.000000 0.000000
vn 1.000000 0.000000 0.000000
vn -1.000000 0.000000 0.000000
vn -1.000000 0.000000 0.000000
vn -1.000000 0.000000 0.000000
vn -1.000000 0.000000 0.000000
vn 1.000000 0.000000 0.000000
vn 1.000000 0.000000 0.000000
vn 1.000000 0.000000 0.000000
vn 1.000000 0.000000 0.000000
vn 0.000000 0.000000 -1.000000
vn 0.000000 0.000000 -1.000000
vn 0.000000 0.000000 -1.000000
vn 0.000000 0.000000 -1.000000
vn -1.000000 0.000000 0.000000
vn -1.000000 0.000000 0.000000
vn -1.000000 0.000000 0.000000
vn -1.000000 0.000000 0.000000
vn 1.000000 0.000000 0.000000
vn 1.000000 0.000000 0.000000
vn 1.000000 0.000000 0.000000
vn 1.000000 0.000000 0.000000
vn -1.000000 0.000000 0.000000
vn -1.000000 0.000000 0.000000
vn -1.000000 0.000000 0.000000
vn -1.000000 0.000000 0.000000
vn 1.000000 0.000000 0.000000
vn 1.000000 0.000000 0.000000
vn 1.000000 0.000000 0.000000
vn 1.000000 0.000000 0.000000
vn 0.000000 0.000000 -1.000000
vn 0.000000 0.000000 -1.000000
vn 0.000000 0.000000 -1.000000
vn 0.000000 0.000000 -1.000000
vn -1.000000 0.000000 0.000000
vn -1.000000 0.000000 0.000000
vn -1.000000 0.000000 0.000000
vn -1.000000 0.000000 0.000000
vn 1.000000 0.000000 0.000000
vn 1.000000 0.000000 0.000000
vn 1.000000 0.000000 0.000000
vn 1.000000 0.000000 0.000000
vn 0.000000 0.000000 -1.000000
vn 0.000000 0.000000 -1.000000
vn 0.000000 0.000000 -1.000000
vn 0.000000 0.000000 -1.000000
vn -1.000000 0.000000 0.000000
vn -1.000000 0.000000 0.000000
vn -1.000000 0.000000 0.000000
vn -1.000000 0.000000 0.000000
vn 0.000000 0.000000 1.000000
vn 0.000000 0.000000 1.000000
vn 0.000000 0.000000 1.000000
vn 0.000000 0.000000 1.000000
vn 0.000000 1.000000 0.000000
vn 0.000000 1.000000 0.000000
vn 0.000000 1.000000 0.000000
vn 0.000000 1.000000 0.000000
vn -1.000000 0.000000 0.000000
vn -1.000000 0.000000 0.000000
vn -1.000000 0.000000 0.000000
vn -1.000000 0.000000 0.000000
vn 0.000000 -1.000000 0.000000
vn 0.000000 -1.000000 0.000000
vn 0.000000 -1.000000 0.000000
vn 0.000000 -1.000000 0.000000
vn 1.000000 0.000000 0.000000
vn 1.000000 0.000000 0.000000
vn 1.000000 0.000000 0.000000
vn 1.000000 0.000000 0.000000
vn 0.000000 1.000000 0.000000
vn 0.000000 1.000000 0.000000
vn 0.000000 1.000000 0.000000
vn 0.000000 1.000000 0.000000
vn -1.000000 0.000000 0.000000
vn -1.000000 0.000000 0.000000
vn -1.000000 0.000000 0.000000
vn -1.000000 0.000000 0.000000
vn 0.000000 -1.000000 0.000000
vn 0.000000 -1.000000 0.000000
vn 0.000000 -1.000000 0.000000
vn 0.000000 -1.000000 0.000000
vn 1.000000 0.000000 0.000000
vn 1.000000 0.000000 0.000000
vn 1.000000 0.000000 0.000000
vn 1.000000 0.000000 0.000000
vn 0.000000 1.000000 0.000000
vn 0.000000 1.000000 0.000000
vn 0.000000 1.000000 0.000000
vn 0.000000 1.000000 0.000000
vn -1.000000 0.000000 0.000000
vn -1.000000 0.000000 0.000000
vn -1.000000 0.000000 0.000000
vn -1.000000 0.000000 0.000000
vn 0.000000 -1.000000 0.000000
vn 0.000000 -1.000000 0.000000
vn 0.000000 -1.000000 0.000000
vn 0.000000 -1.000000 0.000000
vn 1.000000 0.000000 0.000000
vn 1.000000 0.000000 0.000000
vn 1.000000 0.000000 0.000000
vn 1.000000 0.000000 0.000000
vn -1.000000 0.000000 0.000000
vn -1.000000 0.000000 0.000000
vn -1.000000 0.000000 0.000000
vn -1.000000 0.000000 0.000000
vn 1.000000 0.000000 0.000000
vn 1.000000 0.000000 0.000000
vn 1.000000 0.000000 0.000000
vn 1.000000 0.000000 0.000000
vn -1.000000 0.000000 0.000000
vn -1.000000 0.000000 0.000000
vn -1.000000 0.000000 0.000000
vn -1.000000 0.000000 0.000000
vn 0.000000 0.000000 1.000000
vn 0.000000 0.000000 1.000000
vn 0.000000 0.000000 1.000000
vn 0.000000 0.000000 1.000000
vn 1.000000 0.000000 0.000000
vn 1.000000 0.000000 0.000000
vn 1.000000 0.000000 0.000000
vn 1.000000 0.000000 0.000000
vn -1.000000 0.000000 0.000000
vn -1.000000 0.000000 0.000000
vn -1.000000 0.000000 0.000000
vn -1.000000 0.000000 0.000000
vn 0.000000 0.000000 1.000000
vn 0.000000 0.000000 1.000000
vn 0.000000 0.000000 1.000000
vn 0.000000 0.000000 1.000000
vn 1.000000 0.000000 0.000000
vn 1.000000 0.000000 0.000000
vn 1.000000 0.000000 0.000000
vn 1.000000 0.000000 0.000000
vn 0.000000 0.000000 1.000000
vn 0.000000 0.000000 1.000000
vn 0.000000 0.000000 1.000000
vn 0.000000 0.000000 1.000000
s off
g mIceBridge
usemtl initialShadingGroup
f 35/41/1 36/42/2 37/43/3 38/44/4
f 17/23/5 18/24/6 19/25/7 20/26/8
f 7/7/9 8/8/10 2/10/11 1/9/12
f 2/2/13 8/11/14 6/12/15 4/4/16
f 7/13/17 1/1/18 3/3/19 5/14/20
f 32/38/21 31/37/22 33/39/23 34/40/24
f 6/6/25 8/8/26 11/17/27 10/16/28
f 8/8/29 7/7/30 12/18/31 11/17/32
f 7/7/33 5/5/34 9/15/35 12/18/36
f 26/32/37 25/31/38 27/33/39 28/34/40
f 10/16/41 11/17/42 15/21/43 14/20/44
f 11/17/45 12/18/46 16/22/47 15/21/48
f 12/18/49 9/15/50 13/19/51 16/22/52
f 13/19/53 14/20/54 18/24/55 17/23/56
f 14/20/57 15/21/58 19/25/59 18/24/60
f 15/21/61 16/22/62 20/26/63 19/25/64
f 16/22/65 13/19/66 17/23/67 20/26/68
f 4/4/69 6/6/70 23/29/71 22/28/72
f 5/5/73 3/3/74 21/27/75 24/30/76
f 6/6/77 10/16/78 25/31/79 23/29/80
f 9/15/81 5/5/82 24/30/83 26/32/84
f 10/16/85 14/20/86 27/33/87 25/31/88
f 14/20/89 13/19/90 28/34/91 27/33/92
f 13/19/93 9/15/94 26/32/95 28/34/96
f 22/28/97 23/29/98 31/37/99 30/36/100
f 24/30/101 21/27/102 29/35/103 32/38/104
f 23/29/105 25/31/106 33/39/107 31/37/108
f 25/31/109 26/32/110 34/40/111 33/39/112
f 26/32/113 24/30/114 32/38/115 34/40/116
f 30/36/117 31/37/118 37/43/119 36/42/120
f 31/37/121 32/38/122 38/44/123 37/43/124
f 32/38/125 29/35/126 35/41/127 38/44/128
f 47/45/129 48/46/130 49/47/131 50/48/132
f 30/49/133 29/50/134 55/51/135 56/52/136
f 3/53/137 1/54/138 41/55/139 40/56/140
f 1/54/141 2/57/142 42/58/143 41/55/144
f 2/57/145 4/59/146 39/60/147 42/58/148
f 52/61/149 51/62/150 53/63/151 54/64/152
f 40/56/153 41/55/154 45/65/155 44/66/156
f 41/55/157 42/58/158 46/67/159 45/65/160
f 42/58/161 39/60/162 43/68/163 46/67/164
f 43/68/165 44/66/166 48/46/167 47/45/168
f 44/66/169 45/65/170 49/47/171 48/46/172
f 45/65/173 46/67/174 50/48/175 49/47/176
f 46/67/177 43/68/178 47/45/179 50/48/180
f 3/53/181 40/56/182 51/62/183 21/69/184
f 39/60/185 4/59/186 22/70/187 52/61/188
f 40/56/189 44/66/190 53/63/191 51/62/192
f 44/66/193 43/68/194 54/64/195 53/63/196
f 43/68/197 39/60/198 52/61/199 54/64/200
f 21/69/201 51/62/202 55/51/203 29/50/204
f 51/62/205 52/61/206 56/52/207 55/51/208
f 52/61/209 22/70/210 30/49/211 56/52/212
f 29/50/213 30/49/214 36/71/215 35/72/216
