# This file uses centimeters as units for non-parametric coordinates.

mtllib mInvisibleWall.mtl
g default
v -10.932096 15.000000 238.752731
v -10.932096 -0.000000 238.752731
v -10.932096 15.000000 128.325363
v -10.932096 -0.000000 128.325363
v 10.922472 15.000000 238.281189
v 10.922472 -0.000000 238.281189
v 10.922472 15.000000 128.325363
v 10.922472 -0.000000 128.325363
v 10.922472 15.000000 80.743980
v 10.922472 -0.000000 80.743980
v 10.922472 15.000000 -31.019073
v 10.922472 -0.000000 -31.019073
v -11.027629 15.000000 80.743980
v -11.027629 -0.000000 80.743980
v -11.027629 15.000000 -31.019073
v -11.027629 -0.000000 -31.019073
v -11.108303 15.000000 -28.051558
v -11.108303 -0.000000 -28.051558
v 13.885380 15.000000 -28.051558
v 13.885380 -0.000000 -28.051558
vt 0.000000 0.000000
vt 0.163043 0.000000
vt 0.163043 1.000000
vt 0.000000 1.000000
vt 0.000000 0.000000
vt 0.000000 1.000000
vt 0.163043 1.000000
vt 0.163043 0.000000
vt 0.000000 0.000000
vt 0.000000 1.000000
vt 0.163043 1.000000
vt 0.163043 0.000000
vt 0.000000 0.000000
vt 0.163043 0.000000
vt 0.163043 1.000000
vt 0.000000 1.000000
vt 0.000000 0.000000
vt 0.163043 0.000000
vt 0.163043 1.000000
vt 0.000000 1.000000
vn 1.000000 0.000000 0.000000
vn 1.000000 0.000000 0.000000
vn 1.000000 0.000000 0.000000
vn 1.000000 0.000000 0.000000
vn -1.000000 0.000000 0.000000
vn -1.000000 0.000000 0.000000
vn -1.000000 0.000000 0.000000
vn -1.000000 0.000000 0.000000
vn -1.000000 0.000000 0.000000
vn -1.000000 0.000000 0.000000
vn -1.000000 0.000000 0.000000
vn -1.000000 0.000000 0.000000
vn 1.000000 0.000000 0.000000
vn 1.000000 0.000000 0.000000
vn 1.000000 0.000000 0.000000
vn 1.000000 0.000000 0.000000
vn 0.000000 0.000000 1.000000
vn 0.000000 0.000000 1.000000
vn 0.000000 0.000000 1.000000
vn 0.000000 0.000000 1.000000
s off
g mInvisibleWall1
usemtl lambert2SG
f 1/1/1 2/2/2 4/3/3 3/4/4
f 5/5/5 7/6/6 8/7/7 6/8/8
f 9/9/9 11/10/10 12/11/11 10/12/12
f 13/13/13 14/14/14 16/15/15 15/16/16
f 17/17/17 18/18/18 20/19/19 19/20/20
