# This file uses centimeters as units for non-parametric coordinates.

mtllib mInvisibleWallLv2.mtl
g default
v -40.764179 1.409998 37.943996
v -40.764179 13.248510 37.943996
v 33.944008 1.409998 37.943996
v 33.944008 13.248510 37.943996
v -40.764183 1.409998 37.943996
v -40.764183 13.248510 37.943996
v -40.764183 1.409998 -37.407043
v -40.764183 13.248510 -37.407043
v 33.944008 1.409998 37.943996
v 33.944008 13.248510 37.943996
v 33.944008 1.409998 -37.407043
v 33.944008 13.248510 -37.407043
v -40.764183 1.409998 -37.407043
v -40.764183 13.248510 -37.407043
v 33.944008 1.409998 -37.407043
v 33.944008 13.248510 -37.407043
vt 0.000000 0.000000
vt 0.163971 0.000000
vt 0.000000 1.000000
vt 0.163971 1.000000
vt 0.000000 0.000000
vt 0.000000 1.000000
vt 0.163971 1.000000
vt 0.163971 0.000000
vt 0.000000 0.000000
vt 0.163971 0.000000
vt 0.163971 1.000000
vt 0.000000 1.000000
vt 0.000000 0.000000
vt 0.000000 1.000000
vt 0.163971 1.000000
vt 0.163971 0.000000
vn 0.000000 0.000000 -1.000000
vn 0.000000 0.000000 -1.000000
vn 0.000000 0.000000 -1.000000
vn 0.000000 0.000000 -1.000000
vn 1.000000 0.000000 0.000000
vn 1.000000 0.000000 0.000000
vn 1.000000 0.000000 0.000000
vn 1.000000 0.000000 0.000000
vn -1.000000 0.000000 0.000000
vn -1.000000 0.000000 0.000000
vn -1.000000 0.000000 0.000000
vn -1.000000 0.000000 0.000000
vn 0.000000 0.000000 1.000000
vn 0.000000 0.000000 1.000000
vn 0.000000 0.000000 1.000000
vn 0.000000 0.000000 1.000000
s off
g invisibleWallLv2
usemtl lambert2SG
f 1/1/1 2/2/2 4/4/3 3/3/4
f 5/5/5 7/6/6 8/7/7 6/8/8
f 9/9/9 10/10/10 12/11/11 11/12/12
f 13/13/13 15/14/14 16/15/15 14/16/16
