# This file uses centimeters as units for non-parametric coordinates.

mtllib mMinion.mtl
g default
v -0.088665 0.611115 0.042274
v -0.015507 0.559569 0.025190
v -0.030710 0.610276 0.100547
v 0.015509 0.559569 0.025190
v 0.088667 0.611115 0.042274
v 0.030704 0.610276 0.100547
v -0.427000 1.557924 0.427247
v -0.369641 1.558764 0.486202
v 0.426998 1.557924 0.427247
v 0.369637 1.558764 0.486202
v -0.369641 1.558764 -0.486205
v -0.427000 1.557924 -0.427250
v 0.426998 1.557924 -0.427250
v 0.369637 1.558764 -0.486205
v -0.015507 0.559569 -0.025194
v -0.088665 0.611115 -0.042277
v -0.030710 0.610276 -0.100549
v 0.088667 0.611115 -0.042277
v 0.015509 0.559569 -0.025194
v 0.030704 0.610276 -0.100549
v 0.560606 2.798069 0.737401
v -0.560614 2.798069 0.737401
v -0.647610 2.796799 0.647985
v -0.647610 2.796799 -0.647988
v 0.647606 2.796799 -0.647988
v 0.647606 2.796799 0.647985
v -0.560614 2.798069 -0.737403
v 0.560606 2.798069 -0.737403
v 0.427288 3.463354 0.562037
v -0.427295 3.463355 0.562037
v -0.493601 3.462387 0.493885
v -0.493601 3.462387 -0.493890
v 0.493595 3.462387 -0.493890
v 0.493595 3.462387 0.493885
v -0.427295 3.463355 -0.562037
v 0.427288 3.463354 -0.562037
v 0.061958 4.223789 0.081501
v -0.061964 4.223789 0.081501
v -0.071577 4.223648 0.071617
v -0.071577 4.223648 -0.071618
v 0.071573 4.223648 -0.071618
v 0.071573 4.223648 0.071617
v -0.061964 4.223789 -0.081500
v 0.061958 4.223789 -0.081500
v 0.026484 4.265692 0.030372
v -0.026489 4.265692 0.030372
v -0.026489 4.265692 -0.030372
v 0.026484 4.265692 -0.030372
vt 0.612587 0.087273
vt 0.613354 0.087273
vt 0.613354 0.088519
vt 0.612587 0.088519
vt 0.557695 0.002890
vt 0.566075 0.026341
vt 0.547890 0.026341
vt 0.556176 0.002890
vt 0.533279 0.026359
vt 0.512151 0.026359
vt 0.521764 0.002949
vt 0.523854 0.002949
vt 0.592997 0.002911
vt 0.602324 0.026320
vt 0.580240 0.026320
vt 0.589758 0.002911
vt 0.615455 0.026393
vt 0.623728 0.002942
vt 0.625039 0.002942
vt 0.633457 0.026393
vt 0.610778 0.088941
vt 0.610778 0.086851
vt 0.612211 0.090382
vt 0.613730 0.090382
vt 0.554744 0.002911
vt 0.546472 0.026320
vt 0.615163 0.088941
vt 0.615163 0.086851
vt 0.559128 0.002911
vt 0.567493 0.026320
vt 0.510694 0.026380
vt 0.520323 0.002929
vt 0.603781 0.026341
vt 0.594437 0.002890
vt 0.612211 0.085410
vt 0.613730 0.085410
vt 0.570796 0.056983
vt 0.543363 0.056983
vt 0.539206 0.056989
vt 0.507706 0.056989
vt 0.605978 0.056951
vt 0.574406 0.056951
vt 0.638151 0.057035
vt 0.610733 0.057035
vt 0.541212 0.056951
vt 0.572948 0.056951
vt 0.505495 0.057021
vt 0.608189 0.056983
vt 0.567500 0.073431
vt 0.546735 0.073432
vt 0.534945 0.073446
vt 0.510945 0.073446
vt 0.602544 0.073408
vt 0.578592 0.073408
vt 0.634855 0.073484
vt 0.613953 0.073484
vt 0.545096 0.073408
vt 0.569140 0.073408
vt 0.509279 0.073470
vt 0.604229 0.073431
vt 0.558381 0.092010
vt 0.555491 0.092010
vt 0.523023 0.091955
vt 0.519879 0.091955
vt 0.594109 0.092006
vt 0.590567 0.092006
vt 0.625730 0.092058
vt 0.623002 0.092058
vt 0.555266 0.092007
vt 0.558605 0.092007
vt 0.519662 0.091958
vt 0.594353 0.092009
vt 0.557553 0.092987
vt 0.556318 0.092987
vt 0.522118 0.092994
vt 0.520785 0.092994
vt 0.593089 0.093045
vt 0.591587 0.093045
vt 0.624949 0.093094
vt 0.623783 0.093094
vt 0.605289 0.087334
vt 0.605630 0.087329
vt 0.605356 0.088843
vt 0.605808 0.087287
vt 0.606148 0.087292
vt 0.606081 0.088801
vt 0.606581 0.088790
vt 0.606240 0.088786
vt 0.606307 0.087276
vt 0.605186 0.088786
vt 0.604845 0.088790
vt 0.605119 0.087276
vt 0.604668 0.087726
vt 0.604668 0.089228
vt 0.603359 0.089228
vt 0.603359 0.087726
vt 0.557695 0.097224
vt 0.584913 0.096734
vt 0.581193 0.112974
vt 0.560716 0.112974
vn 0.000000 -1.000000 0.000000
vn 0.000000 -1.000000 0.000000
vn 0.000000 -1.000000 0.000000
vn 0.000000 -1.000000 0.000000
vn 0.000000 -0.376656 0.926353
vn 0.000000 -0.235295 0.971924
vn 0.000000 -0.235295 0.971924
vn 0.000000 -0.376655 0.926353
vn -0.978326 -0.207072 0.000000
vn -0.978326 -0.207072 0.000000
vn -0.941682 -0.336503 0.000000
vn -0.941683 -0.336503 0.000000
vn 0.941684 -0.336500 0.000000
vn 0.978326 -0.207070 0.000000
vn 0.978326 -0.207070 0.000000
vn 0.941684 -0.336500 0.000000
vn 0.000000 -0.235294 -0.971924
vn 0.000000 -0.376656 -0.926353
vn 0.000000 -0.376656 -0.926353
vn 0.000000 -0.235294 -0.971924
vn -0.385346 -0.879839 0.278194
vn -0.629362 -0.509549 0.586740
vn -0.629358 -0.509548 -0.586745
vn -0.385347 -0.879838 -0.278197
vn -0.605402 -0.502226 0.617461
vn 0.385351 -0.879836 0.278198
vn 0.605374 -0.502226 0.617488
vn -0.672675 -0.336030 0.659236
vn -0.671237 -0.341456 0.657913
vn 0.629336 -0.509547 0.586769
vn 0.385352 -0.879834 -0.278201
vn 0.629331 -0.509547 -0.586774
vn 0.671216 -0.341457 0.657934
vn 0.672654 -0.336031 0.659256
vn -0.671232 -0.341456 -0.657918
vn -0.672671 -0.336030 -0.659241
vn -0.605397 -0.502226 -0.617466
vn 0.672650 -0.336031 -0.659261
vn 0.671211 -0.341457 -0.657939
vn 0.605369 -0.502226 -0.617493
vn 0.000000 -0.036547 0.999332
vn 0.000000 -0.036547 0.999332
vn -0.999468 -0.032616 0.000000
vn -0.999468 -0.032615 0.000000
vn 0.999468 -0.032613 0.000000
vn 0.999468 -0.032614 0.000000
vn 0.000000 -0.036545 -0.999332
vn 0.000000 -0.036546 -0.999332
vn -0.715862 -0.040611 0.697060
vn -0.715772 -0.043018 0.697008
vn 0.715758 -0.043019 0.697022
vn 0.715847 -0.040611 0.697075
vn -0.715764 -0.043020 -0.697016
vn -0.715853 -0.040612 -0.697069
vn 0.715839 -0.040612 -0.697084
vn 0.715749 -0.043021 -0.697031
vn 0.000000 0.342995 0.939337
vn 0.000000 0.342995 0.939337
vn -0.953590 0.301109 0.000000
vn -0.953590 0.301108 0.000000
vn 0.953590 0.301110 0.000000
vn 0.953590 0.301110 0.000000
vn 0.000000 0.342997 -0.939337
vn 0.000000 0.342997 -0.939337
vn -0.648176 0.435846 0.624425
vn -0.646216 0.441564 0.622436
vn 0.646203 0.441565 0.622448
vn 0.648163 0.435846 0.624438
vn -0.646198 0.441563 -0.622455
vn -0.648157 0.435848 -0.624443
vn 0.648145 0.435848 -0.624455
vn 0.646185 0.441564 -0.622468
vn 0.053143 0.553538 0.831127
vn -0.053144 0.553539 0.831126
vn -0.862634 0.504050 0.042383
vn -0.862633 0.504051 -0.042385
vn 0.862633 0.504051 -0.042388
vn 0.862634 0.504050 0.042387
vn -0.053138 0.553537 -0.831127
vn 0.053137 0.553537 -0.831128
vn 0.408049 0.848472 0.337033
vn -0.408057 0.848467 0.337037
vn -0.408060 0.848465 -0.337039
vn 0.408052 0.848470 -0.337035
vn 0.000000 1.000000 0.000000
vn 0.000000 1.000000 0.000000
vn 0.000000 1.000000 0.000000
vn 0.000000 1.000000 0.000000
s off
g mMinion
usemtl initialShadingGroup
f 15/1/1 19/2/2 4/3/3 2/4/4
s 1
f 6/5/5 10/6/6 8/7/7 3/8/8
f 7/9/9 12/10/10 16/11/11 1/12/12
f 18/13/13 13/14/14 9/15/15 5/16/16
f 14/17/17 20/18/18 17/19/19 11/20/20
f 2/4/21 1/21/22 16/22/23 15/1/24
f 3/23/25 2/4/21 4/3/26 6/24/27
f 1/25/22 3/8/25 8/7/28 7/26/29
f 5/27/30 4/3/26 19/2/31 18/28/32
f 6/5/27 5/29/30 9/30/33 10/6/34
f 12/10/35 11/31/36 17/32/37 16/11/23
f 14/33/38 13/14/39 18/13/32 20/34/40
f 15/1/24 17/35/37 20/36/40 19/2/31
f 1/21/22 2/4/21 3/23/25
f 4/3/26 5/27/30 6/24/27
f 15/1/24 16/22/23 17/35/37
f 18/28/32 19/2/31 20/36/40
f 8/7/7 10/6/6 21/37/41 22/38/42
f 12/10/10 7/9/9 23/39/43 24/40/44
f 9/15/15 13/14/14 25/41/45 26/42/46
f 14/17/17 11/20/20 27/43/47 28/44/48
f 7/26/29 8/7/28 22/38/49 23/45/50
f 10/6/34 9/30/33 26/46/51 21/37/52
f 11/31/36 12/10/35 24/40/53 27/47/54
f 13/14/39 14/33/38 28/48/55 25/41/56
f 22/38/42 21/37/41 29/49/57 30/50/58
f 24/40/44 23/39/43 31/51/59 32/52/60
f 26/42/46 25/41/45 33/53/61 34/54/62
f 28/97/48 27/98/47 35/99/63 36/100/64
f 23/45/50 22/38/49 30/50/65 31/57/66
f 21/37/52 26/46/51 34/58/67 29/49/68
f 27/47/54 24/40/53 32/52/69 35/59/70
f 25/41/56 28/48/55 36/60/71 33/53/72
f 30/50/58 29/49/57 37/61/73 38/62/74
f 32/52/60 31/51/59 39/63/75 40/64/76
f 34/54/62 33/53/61 41/65/77 42/66/78
f 36/56/64 35/55/63 43/67/79 44/68/80
f 31/57/66 30/50/65 38/62/74 39/69/75
f 29/49/68 34/58/67 42/70/78 37/61/73
f 35/59/70 32/52/69 40/64/76 43/71/79
f 33/53/72 36/60/71 44/72/80 41/65/77
f 38/62/74 37/61/73 45/73/81 46/74/82
f 40/64/76 39/63/75 46/75/82 47/76/83
f 42/66/78 41/65/77 48/77/84 45/78/81
f 44/68/80 43/67/79 47/79/83 48/80/84
f 39/81/75 38/82/74 46/83/82
f 37/84/73 42/85/78 45/86/81
f 43/87/79 40/88/76 47/89/83
f 41/90/77 44/91/80 48/92/84
s off
f 47/93/85 46/94/86 45/95/87 48/96/88
