# This file uses centimeters as units for non-parametric coordinates.

mtllib mPeakLoosePart.mtl
g default
v -7.090519 2.307895 210.504410
v 7.090519 2.307895 210.504410
v -7.090519 -9.671869 210.504410
v 7.090519 -9.671869 210.504410
v -2.229139 5.105958 223.126205
v 2.229137 5.105958 223.126205
v -2.229139 0.335255 223.126205
v 2.229137 0.335255 223.126205
vt 0.417735 0.309152
vt 0.417530 0.351805
vt 0.289703 0.334755
vt 0.323558 0.334755
vt 0.265354 0.355801
vt 0.209621 0.355801
vt 0.311952 0.316531
vt 0.301309 0.316531
vt 0.206555 0.360661
vt 0.260548 0.360661
vt 0.260548 0.306668
vt 0.206555 0.306668
vt 0.878835 0.858457
vt 0.619298 0.858457
vt 0.708270 0.598920
vt 0.789863 0.598920
vt 0.417530 0.298351
vt 0.381016 0.343003
vt 0.381016 0.364290
vt 0.417735 0.349477
vt 0.367991 0.358896
vt 0.367991 0.342837
vt 0.209621 0.300068
vt 0.265354 0.300068
vn 0.000000 0.000000 1.000000
vn 0.000000 0.000000 1.000000
vn 0.000000 0.000000 1.000000
vn 0.000000 0.000000 1.000000
vn 0.000000 0.976298 -0.216431
vn 0.000000 0.976298 -0.216431
vn 0.000000 0.976298 -0.216431
vn 0.000000 0.976298 -0.216431
vn -0.933176 0.000000 0.359420
vn -0.933176 0.000000 0.359420
vn -0.933176 0.000000 0.359420
vn -0.933176 0.000000 0.359420
vn 0.000000 -0.783596 0.621270
vn 0.000000 -0.783596 0.621270
vn 0.000000 -0.783596 0.621270
vn 0.000000 -0.783596 0.621270
vn 0.933176 0.000000 0.359420
vn 0.933176 0.000000 0.359420
vn 0.933176 0.000000 0.359420
vn 0.933176 0.000000 0.359420
vn 0.000000 0.000000 -1.000000
vn 0.000000 0.000000 -1.000000
vn 0.000000 0.000000 -1.000000
vn 0.000000 0.000000 -1.000000
s off
g mPeakLoosePart
usemtl initialShadingGroup
f 6/5/1 5/6/2 7/23/3 8/24/4
f 2/13/5 1/14/6 5/15/7 6/16/8
f 1/2/9 3/17/10 7/18/11 5/19/12
f 3/3/13 4/4/14 8/7/15 7/8/16
f 4/1/17 2/20/18 6/21/19 8/22/20
f 1/9/21 2/10/22 4/11/23 3/12/24
