# This file uses centimeters as units for non-parametric coordinates.

mtllib mPeakStartPart.mtl
g default
v -12.000000 -0.000000 279.042419
v 12.000000 -0.000000 279.042419
v -12.000000 -0.000000 239.000000
v 12.000000 -0.000000 239.000000
v -12.000000 -19.807186 279.042419
v -12.000000 -19.807186 239.000000
v 12.000000 -19.807186 279.042419
v 12.000000 -19.807186 239.000000
v -12.000000 -30.634171 279.042419
v -12.000000 -30.634171 239.000000
v 12.000000 -30.634171 279.042419
v 12.000000 -30.634171 239.000000
vt 0.000000 0.000000
vt 0.118280 0.000000
vt 0.000000 1.000000
vt 0.118280 1.000000
vt 0.000000 0.000000
vt 1.000000 0.000000
vt 1.000000 1.000000
vt 0.000000 1.000000
vt 0.000000 0.000000
vt 1.000000 0.000000
vt 1.000000 1.000000
vt 0.000000 1.000000
vt 0.000000 0.000000
vt 1.000000 0.000000
vt 1.000000 1.000000
vt 0.000000 1.000000
vt 0.000000 0.000000
vt 1.000000 0.000000
vt 1.000000 1.000000
vt 0.000000 1.000000
vt 0.000000 0.000000
vt 1.000000 0.000000
vt 1.000000 1.000000
vt 0.000000 1.000000
vt 0.000000 0.000000
vt 1.000000 0.000000
vt 1.000000 1.000000
vt 0.000000 1.000000
vn 0.000000 1.000000 0.000000
vn 0.000000 1.000000 0.000000
vn 0.000000 1.000000 0.000000
vn 0.000000 1.000000 0.000000
vn -1.000000 0.000000 0.000000
vn -1.000000 0.000000 0.000000
vn -1.000000 0.000000 0.000000
vn -1.000000 0.000000 0.000000
vn 1.000000 0.000000 0.000000
vn 1.000000 0.000000 0.000000
vn 1.000000 0.000000 0.000000
vn 1.000000 0.000000 0.000000
vn 0.000000 0.000000 1.000000
vn 0.000000 0.000000 1.000000
vn 0.000000 0.000000 1.000000
vn 0.000000 0.000000 1.000000
vn -1.000000 0.000000 0.000000
vn -1.000000 0.000000 0.000000
vn -1.000000 0.000000 0.000000
vn -1.000000 0.000000 0.000000
vn 1.000000 0.000000 0.000000
vn 1.000000 0.000000 0.000000
vn 1.000000 0.000000 0.000000
vn 1.000000 0.000000 0.000000
vn 0.000000 0.000000 1.000000
vn 0.000000 0.000000 1.000000
vn 0.000000 0.000000 1.000000
vn 0.000000 0.000000 1.000000
s off
g mPeakStartPart
usemtl initialShadingGroup
f 1/1/1 2/2/2 4/4/3 3/3/4
f 1/5/5 3/6/6 6/7/7 5/8/8
f 4/9/9 2/10/10 7/11/11 8/12/12
f 2/13/13 1/14/14 5/15/15 7/16/16
f 5/17/17 6/18/18 10/19/19 9/20/20
f 8/21/21 7/22/22 11/23/23 12/24/24
f 7/25/25 5/26/26 9/27/27 11/28/28
