# This file uses centimeters as units for non-parametric coordinates.

mtllib mSnowBall.mtl
g default
v 0.070940 -0.305707 -0.040956
v 0.040958 -0.305707 -0.070940
v 0.000000 -0.305707 -0.081915
v -0.040958 -0.305707 -0.070940
v -0.070940 -0.305707 -0.040956
v -0.081914 -0.305707 0.000000
v -0.070940 -0.305707 0.040956
v -0.040958 -0.305707 0.070940
v 0.000000 -0.305707 0.081915
v 0.040958 -0.305707 0.070940
v 0.070940 -0.305707 0.040956
v 0.081914 -0.305707 0.000000
v 0.137045 -0.274089 -0.079123
v 0.079123 -0.274089 -0.137045
v 0.000000 -0.274089 -0.158246
v -0.079123 -0.274089 -0.137045
v -0.137045 -0.274089 -0.079123
v -0.158246 -0.274089 0.000000
v -0.137045 -0.274089 0.079123
v -0.079123 -0.274089 0.137045
v 0.000000 -0.274089 0.158246
v 0.079123 -0.274089 0.137045
v 0.137045 -0.274089 0.079123
v 0.158246 -0.274089 0.000000
v 0.193811 -0.223793 -0.111896
v 0.111897 -0.223793 -0.193811
v 0.000000 -0.223793 -0.223793
v -0.111896 -0.223793 -0.193811
v -0.193810 -0.223793 -0.111896
v -0.223793 -0.223793 0.000000
v -0.193810 -0.223793 0.111896
v -0.111896 -0.223793 0.193811
v 0.000000 -0.223793 0.223793
v 0.111897 -0.223793 0.193811
v 0.193811 -0.223793 0.111896
v 0.223794 -0.223793 0.000000
v 0.237369 -0.158246 -0.137045
v 0.137045 -0.158246 -0.237369
v 0.000000 -0.158246 -0.274091
v -0.137045 -0.158246 -0.237369
v -0.237369 -0.158246 -0.137045
v -0.274089 -0.158246 0.000000
v -0.237369 -0.158246 0.137045
v -0.137045 -0.158246 0.237369
v 0.000000 -0.158246 0.274091
v 0.137045 -0.158246 0.237369
v 0.237369 -0.158246 0.137045
v 0.274091 -0.158246 0.000000
v 0.264751 -0.081914 -0.152853
v 0.152855 -0.081914 -0.264752
v 0.000000 -0.081914 -0.305708
v -0.152853 -0.081914 -0.264752
v -0.264751 -0.081914 -0.152853
v -0.305708 -0.081914 0.000000
v -0.264751 -0.081914 0.152853
v -0.152853 -0.081914 0.264752
v 0.000000 -0.081914 0.305708
v 0.152855 -0.081914 0.264752
v 0.264751 -0.081914 0.152853
v 0.305708 -0.081914 0.000000
v 0.274091 0.000000 -0.158246
v 0.158246 0.000000 -0.274091
v 0.000000 0.000000 -0.316492
v -0.158246 0.000000 -0.274091
v -0.274089 0.000000 -0.158246
v -0.316492 0.000000 0.000000
v -0.274089 0.000000 0.158246
v -0.158246 0.000000 0.274091
v 0.000000 0.000000 0.316492
v 0.158246 0.000000 0.274091
v 0.274091 0.000000 0.158246
v 0.316492 0.000000 0.000000
v 0.264751 0.081915 -0.152853
v 0.152855 0.081915 -0.264752
v 0.000000 0.081915 -0.305708
v -0.152853 0.081915 -0.264752
v -0.264751 0.081915 -0.152853
v -0.305708 0.081915 0.000000
v -0.264751 0.081915 0.152853
v -0.152853 0.081915 0.264752
v 0.000000 0.081915 0.305708
v 0.152855 0.081915 0.264752
v 0.264751 0.081915 0.152853
v 0.305708 0.081915 0.000000
v 0.237369 0.158247 -0.137045
v 0.137045 0.158247 -0.237369
v 0.000000 0.158247 -0.274091
v -0.137045 0.158247 -0.237369
v -0.237369 0.158247 -0.137045
v -0.274089 0.158247 0.000000
v -0.237369 0.158247 0.137045
v -0.137045 0.158247 0.237369
v 0.000000 0.158247 0.274091
v 0.137045 0.158247 0.237369
v 0.237369 0.158247 0.137045
v 0.274091 0.158247 0.000000
v 0.193811 0.223794 -0.111896
v 0.111897 0.223794 -0.193811
v 0.000000 0.223794 -0.223793
v -0.111896 0.223794 -0.193811
v -0.193810 0.223794 -0.111896
v -0.223793 0.223794 0.000000
v -0.193810 0.223794 0.111896
v -0.111896 0.223794 0.193811
v 0.000000 0.223794 0.223793
v 0.111897 0.223794 0.193811
v 0.193811 0.223794 0.111896
v 0.223794 0.223794 0.000000
v 0.137045 0.274090 -0.079123
v 0.079123 0.274090 -0.137045
v 0.000000 0.274090 -0.158246
v -0.079123 0.274090 -0.137045
v -0.137045 0.274090 -0.079123
v -0.158246 0.274090 0.000000
v -0.137045 0.274090 0.079123
v -0.079123 0.274090 0.137045
v 0.000000 0.274090 0.158246
v 0.079123 0.274090 0.137045
v 0.137045 0.274090 0.079123
v 0.158246 0.274090 0.000000
v 0.070940 0.305708 -0.040956
v 0.040958 0.305708 -0.070940
v 0.000000 0.305708 -0.081915
v -0.040958 0.305708 -0.070940
v -0.070940 0.305708 -0.040956
v -0.081914 0.305708 0.000000
v -0.070940 0.305708 0.040956
v -0.040958 0.305708 0.070940
v 0.000000 0.305708 0.081915
v 0.040958 0.305708 0.070940
v 0.070940 0.305708 0.040956
v 0.081914 0.305708 0.000000
v 0.000000 -0.316492 0.000000
v 0.000000 0.316493 0.000000
vt 0.268623 0.210719
vt 0.269207 0.211303
vt 0.268623 0.211303
vt 0.262783 0.210719
vt 0.262783 0.211303
vt 0.263367 0.210720
vt 0.263367 0.211303
vt 0.263951 0.210719
vt 0.263951 0.211303
vt 0.264535 0.210720
vt 0.264535 0.211304
vt 0.265119 0.210719
vt 0.265119 0.211303
vt 0.265703 0.210720
vt 0.265703 0.211303
vt 0.266287 0.210719
vt 0.266287 0.211303
vt 0.266871 0.210720
vt 0.266871 0.211303
vt 0.267455 0.210719
vt 0.267455 0.211303
vt 0.268039 0.210720
vt 0.268039 0.211304
vt 0.269207 0.211887
vt 0.268623 0.211887
vt 0.262783 0.211887
vt 0.263367 0.211887
vt 0.263951 0.211887
vt 0.264535 0.211887
vt 0.265119 0.211887
vt 0.265703 0.211887
vt 0.266287 0.211887
vt 0.266871 0.211887
vt 0.267455 0.211887
vt 0.268039 0.211887
vt 0.269207 0.212471
vt 0.268623 0.212471
vt 0.262783 0.212471
vt 0.263367 0.212471
vt 0.263951 0.212471
vt 0.264535 0.212471
vt 0.265119 0.212471
vt 0.265703 0.212471
vt 0.266287 0.212471
vt 0.266871 0.212471
vt 0.267455 0.212471
vt 0.268039 0.212471
vt 0.269207 0.213055
vt 0.268623 0.213055
vt 0.262783 0.213055
vt 0.263367 0.213055
vt 0.263951 0.213055
vt 0.264535 0.213055
vt 0.265119 0.213055
vt 0.265703 0.213055
vt 0.266287 0.213055
vt 0.266871 0.213055
vt 0.267455 0.213055
vt 0.268039 0.213055
vt 0.269207 0.213639
vt 0.268623 0.213639
vt 0.262783 0.213639
vt 0.263367 0.213639
vt 0.263951 0.213639
vt 0.264535 0.213639
vt 0.265119 0.213639
vt 0.265703 0.213639
vt 0.266287 0.213639
vt 0.266871 0.213639
vt 0.267455 0.213639
vt 0.268039 0.213639
vt 0.269207 0.214223
vt 0.268623 0.214223
vt 0.262783 0.214223
vt 0.263367 0.214223
vt 0.263951 0.214223
vt 0.264535 0.214223
vt 0.265119 0.214223
vt 0.265703 0.214223
vt 0.266287 0.214223
vt 0.266871 0.214223
vt 0.267455 0.214223
vt 0.268039 0.214223
vt 0.269207 0.214807
vt 0.268623 0.214807
vt 0.262783 0.214807
vt 0.263367 0.214807
vt 0.263951 0.214807
vt 0.264535 0.214807
vt 0.265119 0.214807
vt 0.265703 0.214807
vt 0.266287 0.214807
vt 0.266871 0.214807
vt 0.267455 0.214807
vt 0.268039 0.214807
vt 0.269207 0.215391
vt 0.268623 0.215391
vt 0.262783 0.215391
vt 0.263367 0.215391
vt 0.263951 0.215391
vt 0.264535 0.215391
vt 0.265119 0.215391
vt 0.265703 0.215391
vt 0.266287 0.215391
vt 0.266871 0.215391
vt 0.267455 0.215391
vt 0.268039 0.215391
vt 0.269207 0.215975
vt 0.268623 0.215975
vt 0.262783 0.215975
vt 0.263367 0.215975
vt 0.263951 0.215975
vt 0.264535 0.215975
vt 0.265119 0.215975
vt 0.265703 0.215975
vt 0.266287 0.215975
vt 0.266871 0.215975
vt 0.267455 0.215975
vt 0.268039 0.215975
vt 0.269207 0.216559
vt 0.268623 0.216559
vt 0.262783 0.216559
vt 0.263367 0.216559
vt 0.263951 0.216559
vt 0.264535 0.216559
vt 0.265119 0.216559
vt 0.265703 0.216559
vt 0.266287 0.216559
vt 0.266871 0.216559
vt 0.267455 0.216559
vt 0.268039 0.216559
vt 0.266287 0.210136
vt 0.266287 0.217143
vt 0.269791 0.210719
vt 0.269791 0.211303
vt 0.269791 0.211887
vt 0.269791 0.212471
vt 0.269791 0.213055
vt 0.269791 0.213639
vt 0.269791 0.214223
vt 0.269791 0.214807
vt 0.269791 0.215391
vt 0.269791 0.215975
vt 0.269207 0.210720
vt 0.269791 0.216559
vn 0.289763 -0.942364 -0.167292
vn 0.167298 -0.942364 -0.289760
vn 0.270245 -0.841351 -0.468077
vn 0.468076 -0.841352 -0.270244
vn 0.000000 -0.942364 -0.334590
vn -0.000000 -0.841350 -0.540490
vn -0.167298 -0.942364 -0.289760
vn -0.270247 -0.841350 -0.468078
vn -0.289763 -0.942365 -0.167292
vn -0.468081 -0.841349 -0.270246
vn -0.334589 -0.942364 0.000000
vn -0.540492 -0.841349 0.000000
vn -0.289763 -0.942364 0.167292
vn -0.468081 -0.841349 0.270246
vn -0.167298 -0.942364 0.289760
vn -0.270247 -0.841350 0.468078
vn 0.000000 -0.942364 0.334590
vn 0.000000 -0.841350 0.540490
vn 0.167298 -0.942364 0.289760
vn 0.270245 -0.841351 0.468077
vn 0.289763 -0.942365 0.167292
vn 0.468076 -0.841352 0.270244
vn 0.334589 -0.942364 -0.000000
vn 0.540486 -0.841353 -0.000000
vn 0.364805 -0.683865 -0.631859
vn 0.631861 -0.683864 -0.364804
vn -0.000000 -0.683865 -0.729609
vn -0.364804 -0.683866 -0.631859
vn -0.631860 -0.683865 -0.364804
vn -0.729610 -0.683863 -0.000000
vn -0.631860 -0.683865 0.364804
vn -0.364804 -0.683866 0.631859
vn -0.000000 -0.683865 0.729609
vn 0.364805 -0.683865 0.631859
vn 0.631861 -0.683864 0.364804
vn 0.729609 -0.683864 0.000000
vn 0.438134 -0.481828 -0.758867
vn 0.758870 -0.481824 -0.438135
vn -0.000000 -0.481829 -0.876265
vn -0.438137 -0.481829 -0.758866
vn -0.758868 -0.481828 -0.438133
vn -0.876265 -0.481829 0.000000
vn -0.758868 -0.481828 0.438133
vn -0.438137 -0.481829 0.758866
vn -0.000000 -0.481829 0.876265
vn 0.438134 -0.481828 0.758868
vn 0.758870 -0.481824 0.438135
vn 0.876269 -0.481823 0.000000
vn 0.484274 -0.248836 -0.838784
vn 0.838786 -0.248836 -0.484271
vn 0.000000 -0.248835 -0.968546
vn -0.484273 -0.248835 -0.838786
vn -0.838787 -0.248835 -0.484271
vn -0.968546 -0.248835 0.000000
vn -0.838787 -0.248835 0.484271
vn -0.484273 -0.248835 0.838785
vn 0.000000 -0.248835 0.968546
vn 0.484274 -0.248836 0.838784
vn 0.838786 -0.248836 0.484271
vn 0.968546 -0.248836 0.000000
vn 0.500000 -0.000000 -0.866026
vn 0.866027 0.000000 -0.499998
vn -0.000000 -0.000000 -1.000000
vn -0.500003 -0.000000 -0.866024
vn -0.866025 0.000000 -0.500001
vn -1.000000 0.000000 0.000000
vn -0.866025 0.000000 0.500001
vn -0.500003 0.000000 0.866024
vn -0.000000 0.000000 1.000000
vn 0.500000 0.000000 0.866025
vn 0.866027 0.000000 0.499998
vn 1.000000 0.000000 0.000000
vn 0.484274 0.248836 -0.838784
vn 0.838786 0.248836 -0.484271
vn 0.000000 0.248835 -0.968546
vn -0.484273 0.248835 -0.838785
vn -0.838787 0.248835 -0.484271
vn -0.968546 0.248835 0.000000
vn -0.838787 0.248835 0.484271
vn -0.484273 0.248835 0.838785
vn 0.000000 0.248835 0.968546
vn 0.484275 0.248836 0.838784
vn 0.838786 0.248836 0.484271
vn 0.968546 0.248836 0.000000
vn 0.438134 0.481828 -0.758867
vn 0.758870 0.481824 -0.438135
vn 0.000000 0.481829 -0.876265
vn -0.438137 0.481829 -0.758866
vn -0.758868 0.481828 -0.438133
vn -0.876265 0.481830 -0.000000
vn -0.758868 0.481828 0.438133
vn -0.438137 0.481829 0.758866
vn 0.000000 0.481829 0.876265
vn 0.438134 0.481829 0.758867
vn 0.758870 0.481824 0.438135
vn 0.876269 0.481823 0.000000
vn 0.364805 0.683864 -0.631860
vn 0.631861 0.683864 -0.364804
vn -0.000000 0.683865 -0.729609
vn -0.364805 0.683865 -0.631859
vn -0.631860 0.683865 -0.364804
vn -0.729610 0.683863 -0.000000
vn -0.631860 0.683865 0.364804
vn -0.364804 0.683865 0.631859
vn -0.000000 0.683865 0.729609
vn 0.364805 0.683865 0.631859
vn 0.631861 0.683864 0.364804
vn 0.729610 0.683864 0.000000
vn 0.270245 0.841350 -0.468078
vn 0.468078 0.841351 -0.270245
vn -0.000000 0.841350 -0.540491
vn -0.270248 0.841349 -0.468079
vn -0.468082 0.841348 -0.270247
vn -0.540493 0.841348 0.000000
vn -0.468082 0.841348 0.270247
vn -0.270248 0.841349 0.468079
vn -0.000000 0.841350 0.540491
vn 0.270245 0.841350 0.468078
vn 0.468078 0.841351 0.270245
vn 0.540488 0.841352 0.000000
vn 0.167298 0.942364 -0.289761
vn 0.289763 0.942364 -0.167292
vn 0.000000 0.942364 -0.334590
vn -0.167298 0.942364 -0.289761
vn -0.289763 0.942365 -0.167292
vn -0.334589 0.942364 0.000000
vn -0.289763 0.942365 0.167292
vn -0.167298 0.942364 0.289761
vn 0.000000 0.942364 0.334590
vn 0.167298 0.942364 0.289761
vn 0.289763 0.942365 0.167292
vn 0.334589 0.942364 0.000000
vn 0.000000 -1.000000 0.000000
vn 0.000000 1.000000 0.000000
s 1
g mSnowBall
usemtl initialShadingGroup
f 1/1/1 2/144/2 14/2/3 13/3/4
f 2/144/2 3/134/5 15/135/6 14/2/3
f 3/4/5 4/6/7 16/7/8 15/5/6
f 4/6/7 5/8/9 17/9/10 16/7/8
f 5/8/9 6/10/11 18/11/12 17/9/10
f 6/10/11 7/12/13 19/13/14 18/11/12
f 7/12/13 8/14/15 20/15/16 19/13/14
f 8/14/15 9/16/17 21/17/18 20/15/16
f 9/16/17 10/18/19 22/19/20 21/17/18
f 10/18/19 11/20/21 23/21/22 22/19/20
f 11/20/21 12/22/23 24/23/24 23/21/22
f 12/22/23 1/1/1 13/3/4 24/23/24
f 13/3/4 14/2/3 26/24/25 25/25/26
f 14/2/3 15/135/6 27/136/27 26/24/25
f 15/5/6 16/7/8 28/27/28 27/26/27
f 16/7/8 17/9/10 29/28/29 28/27/28
f 17/9/10 18/11/12 30/29/30 29/28/29
f 18/11/12 19/13/14 31/30/31 30/29/30
f 19/13/14 20/15/16 32/31/32 31/30/31
f 20/15/16 21/17/18 33/32/33 32/31/32
f 21/17/18 22/19/20 34/33/34 33/32/33
f 22/19/20 23/21/22 35/34/35 34/33/34
f 23/21/22 24/23/24 36/35/36 35/34/35
f 24/23/24 13/3/4 25/25/26 36/35/36
f 25/25/26 26/24/25 38/36/37 37/37/38
f 26/24/25 27/136/27 39/137/39 38/36/37
f 27/26/27 28/27/28 40/39/40 39/38/39
f 28/27/28 29/28/29 41/40/41 40/39/40
f 29/28/29 30/29/30 42/41/42 41/40/41
f 30/29/30 31/30/31 43/42/43 42/41/42
f 31/30/31 32/31/32 44/43/44 43/42/43
f 32/31/32 33/32/33 45/44/45 44/43/44
f 33/32/33 34/33/34 46/45/46 45/44/45
f 34/33/34 35/34/35 47/46/47 46/45/46
f 35/34/35 36/35/36 48/47/48 47/46/47
f 36/35/36 25/25/26 37/37/38 48/47/48
f 37/37/38 38/36/37 50/48/49 49/49/50
f 38/36/37 39/137/39 51/138/51 50/48/49
f 39/38/39 40/39/40 52/51/52 51/50/51
f 40/39/40 41/40/41 53/52/53 52/51/52
f 41/40/41 42/41/42 54/53/54 53/52/53
f 42/41/42 43/42/43 55/54/55 54/53/54
f 43/42/43 44/43/44 56/55/56 55/54/55
f 44/43/44 45/44/45 57/56/57 56/55/56
f 45/44/45 46/45/46 58/57/58 57/56/57
f 46/45/46 47/46/47 59/58/59 58/57/58
f 47/46/47 48/47/48 60/59/60 59/58/59
f 48/47/48 37/37/38 49/49/50 60/59/60
f 49/49/50 50/48/49 62/60/61 61/61/62
f 50/48/49 51/138/51 63/139/63 62/60/61
f 51/50/51 52/51/52 64/63/64 63/62/63
f 52/51/52 53/52/53 65/64/65 64/63/64
f 53/52/53 54/53/54 66/65/66 65/64/65
f 54/53/54 55/54/55 67/66/67 66/65/66
f 55/54/55 56/55/56 68/67/68 67/66/67
f 56/55/56 57/56/57 69/68/69 68/67/68
f 57/56/57 58/57/58 70/69/70 69/68/69
f 58/57/58 59/58/59 71/70/71 70/69/70
f 59/58/59 60/59/60 72/71/72 71/70/71
f 60/59/60 49/49/50 61/61/62 72/71/72
f 61/61/62 62/60/61 74/72/73 73/73/74
f 62/60/61 63/139/63 75/140/75 74/72/73
f 63/62/63 64/63/64 76/75/76 75/74/75
f 64/63/64 65/64/65 77/76/77 76/75/76
f 65/64/65 66/65/66 78/77/78 77/76/77
f 66/65/66 67/66/67 79/78/79 78/77/78
f 67/66/67 68/67/68 80/79/80 79/78/79
f 68/67/68 69/68/69 81/80/81 80/79/80
f 69/68/69 70/69/70 82/81/82 81/80/81
f 70/69/70 71/70/71 83/82/83 82/81/82
f 71/70/71 72/71/72 84/83/84 83/82/83
f 72/71/72 61/61/62 73/73/74 84/83/84
f 73/73/74 74/72/73 86/84/85 85/85/86
f 74/72/73 75/140/75 87/141/87 86/84/85
f 75/74/75 76/75/76 88/87/88 87/86/87
f 76/75/76 77/76/77 89/88/89 88/87/88
f 77/76/77 78/77/78 90/89/90 89/88/89
f 78/77/78 79/78/79 91/90/91 90/89/90
f 79/78/79 80/79/80 92/91/92 91/90/91
f 80/79/80 81/80/81 93/92/93 92/91/92
f 81/80/81 82/81/82 94/93/94 93/92/93
f 82/81/82 83/82/83 95/94/95 94/93/94
f 83/82/83 84/83/84 96/95/96 95/94/95
f 84/83/84 73/73/74 85/85/86 96/95/96
f 85/85/86 86/84/85 98/96/97 97/97/98
f 86/84/85 87/141/87 99/142/99 98/96/97
f 87/86/87 88/87/88 100/99/100 99/98/99
f 88/87/88 89/88/89 101/100/101 100/99/100
f 89/88/89 90/89/90 102/101/102 101/100/101
f 90/89/90 91/90/91 103/102/103 102/101/102
f 91/90/91 92/91/92 104/103/104 103/102/103
f 92/91/92 93/92/93 105/104/105 104/103/104
f 93/92/93 94/93/94 106/105/106 105/104/105
f 94/93/94 95/94/95 107/106/107 106/105/106
f 95/94/95 96/95/96 108/107/108 107/106/107
f 96/95/96 85/85/86 97/97/98 108/107/108
f 97/97/98 98/96/97 110/108/109 109/109/110
f 98/96/97 99/142/99 111/143/111 110/108/109
f 99/98/99 100/99/100 112/111/112 111/110/111
f 100/99/100 101/100/101 113/112/113 112/111/112
f 101/100/101 102/101/102 114/113/114 113/112/113
f 102/101/102 103/102/103 115/114/115 114/113/114
f 103/102/103 104/103/104 116/115/116 115/114/115
f 104/103/104 105/104/105 117/116/117 116/115/116
f 105/104/105 106/105/106 118/117/118 117/116/117
f 106/105/106 107/106/107 119/118/119 118/117/118
f 107/106/107 108/107/108 120/119/120 119/118/119
f 108/107/108 97/97/98 109/109/110 120/119/120
f 109/109/110 110/108/109 122/120/121 121/121/122
f 110/108/109 111/143/111 123/145/123 122/120/121
f 111/110/111 112/111/112 124/123/124 123/122/123
f 112/111/112 113/112/113 125/124/125 124/123/124
f 113/112/113 114/113/114 126/125/126 125/124/125
f 114/113/114 115/114/115 127/126/127 126/125/126
f 115/114/115 116/115/116 128/127/128 127/126/127
f 116/115/116 117/116/117 129/128/129 128/127/128
f 117/116/117 118/117/118 130/129/130 129/128/129
f 118/117/118 119/118/119 131/130/131 130/129/130
f 119/118/119 120/119/120 132/131/132 131/130/131
f 120/119/120 109/109/110 121/121/122 132/131/132
f 2/144/2 1/1/1 133/132/133
f 3/134/5 2/144/2 133/132/133
f 4/6/7 3/4/5 133/132/133
f 5/8/9 4/6/7 133/132/133
f 6/10/11 5/8/9 133/132/133
f 7/12/13 6/10/11 133/132/133
f 8/14/15 7/12/13 133/132/133
f 9/16/17 8/14/15 133/132/133
f 10/18/19 9/16/17 133/132/133
f 11/20/21 10/18/19 133/132/133
f 12/22/23 11/20/21 133/132/133
f 1/1/1 12/22/23 133/132/133
f 121/121/122 122/120/121 134/133/134
f 122/120/121 123/145/123 134/133/134
f 123/122/123 124/123/124 134/133/134
f 124/123/124 125/124/125 134/133/134
f 125/124/125 126/125/126 134/133/134
f 126/125/126 127/126/127 134/133/134
f 127/126/127 128/127/128 134/133/134
f 128/127/128 129/128/129 134/133/134
f 129/128/129 130/129/130 134/133/134
f 130/129/130 131/130/131 134/133/134
f 131/130/131 132/131/132 134/133/134
f 132/131/132 121/121/122 134/133/134
