# This file uses centimeters as units for non-parametric coordinates.

mtllib mStoneSlab.mtl
g default
v 9.584016 -0.000000 269.889836
v 12.000000 -0.000000 269.889836
v 9.584016 4.001178 269.441526
v 10.584016 4.001178 269.441526
v 9.584016 4.001178 265.602598
v 10.584016 4.001178 265.602598
v 9.584016 -0.000000 265.154288
v 12.000000 -0.000000 265.154288
v 9.584016 4.980030 269.118630
v 10.584016 4.980030 269.118630
v 10.584016 4.980030 265.925494
v 9.584016 4.980030 265.925494
vt 0.375000 0.000000
vt 0.625000 0.000000
vt 0.375000 0.250000
vt 0.625000 0.250000
vt 0.375000 0.500000
vt 0.625000 0.500000
vt 0.375000 0.750000
vt 0.625000 0.750000
vt 0.375000 1.000000
vt 0.625000 1.000000
vt 0.875000 0.000000
vt 0.875000 0.250000
vt 0.125000 0.000000
vt 0.125000 0.250000
vt 0.375000 0.250000
vt 0.625000 0.250000
vt 0.625000 0.500000
vt 0.375000 0.500000
vn 0.000000 0.111348 0.993782
vn 0.000000 0.111348 0.993782
vn 0.000000 0.111348 0.993782
vn 0.000000 0.111348 0.993782
vn 0.000000 1.000000 0.000000
vn 0.000000 1.000000 0.000000
vn 0.000000 1.000000 0.000000
vn 0.000000 1.000000 0.000000
vn 0.000000 0.111348 -0.993782
vn 0.000000 0.111348 -0.993782
vn 0.000000 0.111348 -0.993782
vn 0.000000 0.111348 -0.993782
vn 0.000000 -1.000000 0.000000
vn 0.000000 -1.000000 0.000000
vn 0.000000 -1.000000 0.000000
vn 0.000000 -1.000000 0.000000
vn 0.942709 0.333617 0.000000
vn 0.942709 0.333617 0.000000
vn 0.942709 0.333617 0.000000
vn 0.942709 0.333617 0.000000
vn -1.000000 0.000000 0.000000
vn -1.000000 0.000000 0.000000
vn -1.000000 0.000000 0.000000
vn -1.000000 0.000000 0.000000
vn 0.000000 0.313268 0.949665
vn 0.000000 0.313268 0.949665
vn 0.000000 0.313268 0.949665
vn 0.000000 0.313268 0.949665
vn 1.000000 0.000000 0.000000
vn 1.000000 0.000000 0.000000
vn 1.000000 0.000000 0.000000
vn 1.000000 0.000000 0.000000
vn 0.000000 0.313268 -0.949665
vn 0.000000 0.313268 -0.949665
vn 0.000000 0.313268 -0.949665
vn 0.000000 0.313268 -0.949665
vn -1.000000 0.000000 0.000000
vn -1.000000 0.000000 0.000000
vn -1.000000 0.000000 0.000000
vn -1.000000 0.000000 0.000000
s off
g mStoneSlab
usemtl initialShadingGroup
f 1/1/1 2/2/2 4/4/3 3/3/4
f 9/15/5 10/16/6 11/17/7 12/18/8
f 5/5/9 6/6/10 8/8/11 7/7/12
f 7/7/13 8/8/14 2/10/15 1/9/16
f 2/2/17 8/11/18 6/12/19 4/4/20
f 7/13/21 1/1/22 3/3/23 5/14/24
f 3/3/25 4/4/26 10/16/27 9/15/28
f 4/4/29 6/6/30 11/17/31 10/16/32
f 6/6/33 5/5/34 12/18/35 11/17/36
f 5/5/37 3/3/38 9/15/39 12/18/40
